<?xml version="1.0" encoding="utf-8"?>
<!-- Generator: Adobe Illustrator 19.0.0, SVG Export Plug-In . SVG Version: 6.00 Build 0)  -->
<svg version="1.1" id="Layer_1" xmlns="http://www.w3.org/2000/svg" xmlns:xlink="http://www.w3.org/1999/xlink" x="0px" y="0px"
	 viewBox="-61 338.5 472.5 164.4" style="enable-background:new -61 338.5 472.5 164.4;" xml:space="preserve">
<style type="text/css">
	.st0{fill:#00FFA3;}
	.st1{opacity:0.5;fill:#008869;enable-background:new    ;}
	.st2{fill:#008869;}
	.st3{fill:#F4F5F9;}
	.st4{clip-path:url(#SVGID_2_);}
	.st5{fill:#FFFFFF;}
	.st6{clip-path:url(#SVGID_4_);}
	.st7{opacity:0.5;}
	.st8{fill:#1D1D1B;}
</style>
<g id="Gruppe_303" transform="translate(0.001)">
	<path id="Pfad_293" class="st0" d="M2.5,399.6l23,24.5l32.1-7.8C43.6,401.1,22.5,394.8,2.5,399.6z"/>
	<path id="Pfad_294" class="st1" d="M16.3,456.3c20-4.9,35.8-20.3,41.3-40.1l-32.1,7.8L16.3,456.3z"/>
	<path id="Pfad_295" class="st2" d="M16.3,456.3l9.1-32.3l-23-24.5h0C-3.2,419.6,2.1,441.2,16.3,456.3z"/>
	<g id="Gruppe_299" transform="translate(0 0)">
		<g id="Gruppe_297">
			<path id="Pfad_296" class="st3" d="M7.3,488.5c-0.1,0-0.3,0-0.4,0.1s-0.3,0-0.4,0.1c-0.6,0.1-1.1,0.2-1.7,0.3
				c-0.5,0.1-1,0.1-1.4,0.2c-0.5,0.1-1.1,0.1-1.7,0.2c-0.5,0-1,0.1-1.4,0.1c-0.1,0-0.3,0-0.4,0s-0.2,0-0.3,0c-0.3,0-0.6,0-1,0
				l-0.7,0c-0.1,0-0.3,0-0.4,0c-0.9,0-1.8,0-2.8,0c-0.1,0-0.3,0-0.4,0l-0.3,0c-0.8,0-1.5-0.1-2.3-0.1l-0.2,0c-0.2,0-0.3,0-0.5,0
				c-1-0.1-1.9-0.2-2.8-0.3c-0.1,0-0.1,0-0.2,0l-0.2,0c-0.8-0.1-1.6-0.3-2.4-0.4c-0.3,0-0.5-0.1-0.8-0.2c-1.1-0.2-2-0.4-2.8-0.7
				c-10.9-2.8-20.8-8.9-28.3-17.3c-0.6-0.7-1.2-1.4-1.8-2.2c-1.2-1.5-2.3-3-3.3-4.6c-0.5-0.8-1-1.6-1.5-2.4
				c-7.7-13.1-9.8-28.7-5.9-43.4c0.3-1,0.6-2.1,1-3.2l0.1-0.3c0.3-1,0.7-1.9,1.1-3l0.2-0.4c0.4-0.9,0.8-1.9,1.2-2.8l0.2-0.4
				c0.4-0.9,0.9-1.8,1.4-2.7c0.1-0.1,0.2-0.3,0.2-0.4c0.5-0.9,1-1.8,1.6-2.6l0.2-0.4c0.6-0.9,1.2-1.8,1.7-2.6l0.2-0.3
				c0.7-0.9,1.3-1.8,2-2.6l0.1-0.1c0.7-0.8,1.4-1.7,2.1-2.5l0.1-0.1c0.7-0.7,1.4-1.5,2.2-2.3l0.3-0.3c0.7-0.7,1.5-1.4,2.3-2.1
				l0.3-0.3c0.8-0.6,1.6-1.3,2.4-1.9l0.4-0.3c0.8-0.6,1.7-1.2,2.5-1.8l0.4-0.3c0.9-0.6,1.8-1.1,2.6-1.6l0.3-0.2
				c0.8-0.5,1.6-0.9,2.4-1.3c-0.3,1.1-0.5,2.2-0.8,3.3c-0.6,3.1-1.3,7.2-1.9,12.1c-7.6,6.1-13,14.5-15.5,23.9
				c-0.2,0.8-0.4,1.5-0.5,2.3c0,0.1,0,0.2,0,0.2l0,0.1c-0.2,0.8-0.3,1.4-0.4,2l0,0c-3.3,21.4,8.8,42.1,29,49.8l0.1,0
				c0.7,0.3,1.4,0.5,1.9,0.7l0.1,0c0.1,0,0.1,0.1,0.2,0.1c0.7,0.2,1.5,0.5,2.2,0.6l0.2,0.1l0,0c2.7,0.7,5.4,1.1,8.1,1.3
				c0.5,0.1,1.1,0.1,1.6,0.1h0.1c6.1-0.2,12.1-1.1,18-2.8l0.1,0c13.6-4.4,27.3-13.1,38.7-24.6c12.3-12.4,20.5-25.5,24.3-38.8
				l0.3-1.1l-0.9-0.8c-10.6-9.6-25-17.2-40.7-21.3c-15.6-4.1-31.9-4.7-45.8-1.5l-1.2,0.3l-0.3,1.2c-3,13.9-2.3,30.2,2,45.8
				c3.4,12.9,9.3,25,17.4,35.6c-1.6,0.3-3.4,0.6-5.4,0.9c-2.5,0.4-5.1,0.6-7.6,0.7c-14.5-21.9-21.3-48-19.3-74.2
				c0.1-0.5,0.1-1.1,0.1-1.6c0.6-6.3,1.9-12.5,3.9-18.5c0-0.1,0-0.1,0.1-0.2c0.4-1.1,0.8-2.1,1.2-3.1l0-0.1c0.4-1,0.9-2,1.3-3
				l0.1-0.2c0.4-0.9,0.9-1.8,1.5-2.8l0.2-0.4c0.5-0.8,1-1.7,1.6-2.6l0.3-0.4c0.5-0.8,1.1-1.7,1.7-2.5l0.3-0.4
				c0.6-0.8,1.2-1.6,1.9-2.4l0.3-0.4c0.7-0.8,1.4-1.6,2-2.3l0.3-0.3c0.8-0.8,1.5-1.5,2.2-2.2l0.1-0.1c0.8-0.7,1.6-1.5,2.4-2.1
				l0.1-0.1c0.8-0.7,1.6-1.3,2.5-2l0.3-0.2c0.8-0.6,1.6-1.2,2.5-1.8l0.4-0.2c0.8-0.5,1.7-1.1,2.6-1.6l0.4-0.2c0.9-0.5,1.8-1,2.7-1.4
				l0.4-0.2c0.9-0.5,1.9-0.9,2.8-1.3l0.4-0.2c1.1-0.4,2-0.8,3-1.1l0.3-0.1c1.1-0.4,2.2-0.7,3.2-1c0.9-0.3,1.9-0.5,2.8-0.7
				c0.1,0,0.1,0,0.2,0c0.1,0,0.2,0,0.3-0.1c1-0.2,1.7-0.3,2.4-0.5l0.1,0c26.7-4.3,52.8,10.6,62.6,35.8l0,0c0.3,0.7,0.5,1.5,0.8,2.4
				c0,0.1,0.1,0.2,0.1,0.2c0,0,0,0.1,0.1,0.1c0.3,0.9,0.6,1.9,0.8,2.8c0.2,0.9,0.5,1.8,0.7,2.9l0.1,0.5c0.2,0.9,0.4,1.8,0.5,2.8
				c0,0.2,0,0.3,0.1,0.5c0.1,1,0.3,1.9,0.4,2.8l0,0.4c0.1,1,0.2,1.9,0.2,2.9l0,0.2c0,0.9,0,1.8,0,2.9l0,0.5c0,0.6,0,1.2-0.1,1.8
				c-0.6-0.6-1.2-1.2-1.8-1.7c-2.5-2.3-5.9-5.1-10.1-8.4c-0.2-1.6-0.6-3.2-1-4.8c-6.6-24.4-31.8-38.8-56.2-32.1
				c-11.1,3-20.6,10.1-26.7,19.8l-2.1,3.4l4-0.5c28.2-2.9,56.5,4.6,79.6,21c5.1,3.6,9.8,7.9,14,12.6c5.7,6.5,9.8,14.2,12.1,22.5l0,0
				c8.3,30.5-9.6,61.9-40.1,70.3c-3.9,1.1-7.9,1.7-11.9,1.9c-0.9,0.1-1.9,0.1-2.9,0.1c-0.2,0-0.4,0-0.5,0c-0.1,0-0.3,0-0.4,0
				c-0.7,0-1.3,0-1.9,0c-0.3,0-0.5,0-0.7,0l-0.4,0c-0.6,0-1.2-0.1-1.7-0.1c-0.3,0-0.6-0.1-0.9-0.1l-0.3,0c-0.6-0.1-1.1-0.1-1.6-0.2
				c-0.4-0.1-0.8-0.1-1.2-0.2l-0.1,0c-0.5-0.1-1.1-0.2-1.6-0.3c-0.4-0.1-0.8-0.2-1.2-0.3c-0.5-0.1-1.1-0.2-1.6-0.4
				c-0.4-0.1-0.8-0.2-1.2-0.3c-0.5-0.1-1-0.3-1.6-0.5l-0.1,0c-0.4-0.1-0.8-0.2-1.1-0.3c-0.5-0.2-1.1-0.4-1.6-0.5l-0.2-0.1
				c-0.3-0.1-0.6-0.2-0.9-0.3c-0.5-0.2-1.1-0.4-1.6-0.7l-0.3-0.1c-0.2-0.1-0.5-0.2-0.7-0.3c-0.6-0.2-1.1-0.5-1.8-0.8
				c-0.1-0.1-0.2-0.1-0.4-0.2c-0.2-0.1-0.3-0.1-0.5-0.2c-0.9-0.4-1.7-0.9-2.5-1.3c-0.1,0-0.1-0.1-0.2-0.1c-0.1,0-0.2-0.1-0.2-0.1
				c-0.8-0.5-1.5-0.9-2.1-1.2c-0.2-0.1-0.4-0.2-0.5-0.3l-0.3-0.2c-0.5-0.3-1-0.7-1.5-1c-0.2-0.2-0.4-0.3-0.6-0.5l-0.3-0.2
				c-0.5-0.3-0.9-0.7-1.4-1c-0.3-0.2-0.5-0.4-0.8-0.6l-0.2-0.2c-0.1-0.1-0.2-0.2-0.4-0.3c-0.2-0.1-0.3-0.3-0.5-0.4l-0.7-0.6
				L7.3,488.5z M58.1,489.6c0.7-0.2,1.5-0.4,2.2-0.7c0.1,0,0.1,0,0.2-0.1l0.1,0c0.7-0.2,1.3-0.5,1.9-0.7l0,0
				c20.1-7.9,32.1-28.7,28.6-50.1l0-0.1c-0.1-0.6-0.2-1.3-0.4-2l0-0.1c0-0.1,0-0.1,0-0.2c-0.2-0.8-0.4-1.5-0.6-2.3
				c-0.9-3.1-2-6.1-3.5-9l-1.9-3.6l-1.6,3.7c-5,11.8-13,23.3-23.8,34.2c-9.8,10-21.5,18.1-34.2,24l-3.6,1.6l3.5,1.8
				c6.5,3.3,13.7,5.1,21,5.1C50.2,491.2,54.2,490.7,58.1,489.6L58.1,489.6z"/>
			<g id="Gruppe_296">
				<path id="Pfad_297" class="st3" d="M7.3,488.5c-0.1,0-0.3,0-0.4,0.1s-0.3,0-0.4,0.1c-0.6,0.1-1.1,0.2-1.7,0.3
					c-0.5,0.1-1,0.1-1.4,0.2c-0.5,0.1-1.1,0.1-1.7,0.2c-0.5,0-1,0.1-1.4,0.1c-0.1,0-0.3,0-0.4,0s-0.2,0-0.3,0c-0.3,0-0.6,0-1,0
					l-0.7,0c-0.1,0-0.3,0-0.4,0c-0.9,0-1.8,0-2.8,0c-0.1,0-0.3,0-0.4,0l-0.3,0c-0.8,0-1.5-0.1-2.3-0.1l-0.2,0c-0.2,0-0.3,0-0.5,0
					c-1-0.1-1.9-0.2-2.8-0.3c-0.1,0-0.1,0-0.2,0l-0.2,0c-0.8-0.1-1.6-0.3-2.4-0.4c-0.3,0-0.5-0.1-0.8-0.2c-1.1-0.2-2-0.4-2.8-0.7
					c-10.9-2.8-20.8-8.9-28.3-17.3c-0.6-0.7-1.2-1.4-1.8-2.2c-1.2-1.5-2.3-3-3.3-4.6c-0.5-0.8-1-1.6-1.5-2.4
					c-7.7-13.1-9.8-28.7-5.9-43.4c0.3-1,0.6-2.1,1-3.2l0.1-0.3c0.3-1,0.7-1.9,1.1-3l0.2-0.4c0.4-0.9,0.8-1.9,1.2-2.8l0.2-0.4
					c0.4-0.9,0.9-1.8,1.4-2.7c0.1-0.1,0.2-0.3,0.2-0.4c0.5-0.9,1-1.8,1.6-2.6l0.2-0.4c0.6-0.9,1.2-1.8,1.7-2.6l0.2-0.3
					c0.7-0.9,1.3-1.8,2-2.6l0.1-0.1c0.7-0.8,1.4-1.7,2.1-2.5l0.1-0.1c0.7-0.7,1.4-1.5,2.2-2.3l0.3-0.3c0.7-0.7,1.5-1.4,2.3-2.1
					l0.3-0.3c0.8-0.6,1.6-1.3,2.4-1.9l0.4-0.3c0.8-0.6,1.7-1.2,2.5-1.8l0.4-0.3c0.9-0.6,1.8-1.1,2.6-1.6l0.3-0.2
					c0.8-0.5,1.6-0.9,2.4-1.3c-0.3,1.1-0.5,2.2-0.8,3.3c-0.6,3.1-1.3,7.2-1.9,12.1c-7.6,6.1-13,14.5-15.5,23.9
					c-0.2,0.8-0.4,1.5-0.5,2.3c0,0.1,0,0.2,0,0.2l0,0.1c-0.2,0.8-0.3,1.4-0.4,2l0,0c-3.3,21.4,8.8,42.1,29,49.8l0.1,0
					c0.7,0.3,1.4,0.5,1.9,0.7l0.1,0c0.1,0,0.1,0.1,0.2,0.1c0.7,0.2,1.5,0.5,2.2,0.6l0.2,0.1l0,0c2.7,0.7,5.4,1.1,8.1,1.3
					c0.5,0.1,1.1,0.1,1.6,0.1h0.1c6.1-0.2,12.1-1.1,18-2.8l0.1,0c13.6-4.4,27.3-13.1,38.7-24.6c12.3-12.4,20.5-25.5,24.3-38.8
					l0.3-1.1l-0.9-0.8c-10.6-9.6-25-17.2-40.7-21.3c-15.6-4.1-31.9-4.7-45.8-1.5l-1.2,0.3l-0.3,1.2c-3,13.9-2.3,30.2,2,45.8
					c3.4,12.9,9.3,25,17.4,35.6c-1.6,0.3-3.4,0.6-5.4,0.9c-2.5,0.4-5.1,0.6-7.6,0.7c-14.5-21.9-21.3-48-19.3-74.2
					c0.1-0.5,0.1-1.1,0.1-1.6c0.6-6.3,1.9-12.5,3.9-18.5c0-0.1,0-0.1,0.1-0.2c0.4-1.1,0.8-2.1,1.2-3.1l0-0.1c0.4-1,0.9-2,1.3-3
					l0.1-0.2c0.4-0.9,0.9-1.8,1.5-2.8l0.2-0.4c0.5-0.8,1-1.7,1.6-2.6l0.3-0.4c0.5-0.8,1.1-1.7,1.7-2.5l0.3-0.4
					c0.6-0.8,1.2-1.6,1.9-2.4l0.3-0.4c0.7-0.8,1.4-1.6,2-2.3l0.3-0.3c0.8-0.8,1.5-1.5,2.2-2.2l0.1-0.1c0.8-0.7,1.6-1.5,2.4-2.1
					l0.1-0.1c0.8-0.7,1.6-1.3,2.5-2l0.3-0.2c0.8-0.6,1.6-1.2,2.5-1.8l0.4-0.2c0.8-0.5,1.7-1.1,2.6-1.6l0.4-0.2
					c0.9-0.5,1.8-1,2.7-1.4l0.4-0.2c0.9-0.5,1.9-0.9,2.8-1.3l0.4-0.2c1.1-0.4,2-0.8,3-1.1l0.3-0.1c1.1-0.4,2.2-0.7,3.2-1
					c0.9-0.3,1.9-0.5,2.8-0.7c0.1,0,0.1,0,0.2,0c0.1,0,0.2,0,0.3-0.1c1-0.2,1.7-0.3,2.4-0.5l0.1,0c26.7-4.3,52.8,10.6,62.6,35.8l0,0
					c0.3,0.7,0.5,1.5,0.8,2.4c0,0.1,0.1,0.2,0.1,0.2c0,0,0,0.1,0.1,0.1c0.3,0.9,0.6,1.9,0.8,2.8c0.2,0.9,0.5,1.8,0.7,2.9l0.1,0.5
					c0.2,0.9,0.4,1.8,0.5,2.8c0,0.2,0,0.3,0.1,0.5c0.1,1,0.3,1.9,0.4,2.8l0,0.4c0.1,1,0.2,1.9,0.2,2.9l0,0.2c0,0.9,0,1.8,0,2.9
					l0,0.5c0,0.6,0,1.2-0.1,1.8c-0.6-0.6-1.2-1.2-1.8-1.7c-2.5-2.3-5.9-5.1-10.1-8.4c-0.2-1.6-0.6-3.2-1-4.8
					c-6.6-24.4-31.8-38.8-56.2-32.1c-11.1,3-20.6,10.1-26.7,19.8l-2.1,3.4l4-0.5c28.2-2.9,56.5,4.6,79.6,21c5.1,3.6,9.8,7.9,14,12.6
					c5.7,6.5,9.8,14.2,12.1,22.5l0,0c8.3,30.5-9.6,61.9-40.1,70.3c-3.9,1.1-7.9,1.7-11.9,1.9c-0.9,0.1-1.9,0.1-2.9,0.1
					c-0.2,0-0.4,0-0.5,0c-0.1,0-0.3,0-0.4,0c-0.7,0-1.3,0-1.9,0c-0.3,0-0.5,0-0.7,0l-0.4,0c-0.6,0-1.2-0.1-1.7-0.1
					c-0.3,0-0.6-0.1-0.9-0.1l-0.3,0c-0.6-0.1-1.1-0.1-1.6-0.2c-0.4-0.1-0.8-0.1-1.2-0.2l-0.1,0c-0.5-0.1-1.1-0.2-1.6-0.3
					c-0.4-0.1-0.8-0.2-1.2-0.3c-0.5-0.1-1.1-0.2-1.6-0.4c-0.4-0.1-0.8-0.2-1.2-0.3c-0.5-0.1-1-0.3-1.6-0.5l-0.1,0
					c-0.4-0.1-0.8-0.2-1.1-0.3c-0.5-0.2-1.1-0.4-1.6-0.5l-0.2-0.1c-0.3-0.1-0.6-0.2-0.9-0.3c-0.5-0.2-1.1-0.4-1.6-0.7l-0.3-0.1
					c-0.2-0.1-0.5-0.2-0.7-0.3c-0.6-0.2-1.1-0.5-1.8-0.8c-0.1-0.1-0.2-0.1-0.4-0.2c-0.2-0.1-0.3-0.1-0.5-0.2
					c-0.9-0.4-1.7-0.9-2.5-1.3c-0.1,0-0.1-0.1-0.2-0.1c-0.1,0-0.2-0.1-0.2-0.1c-0.8-0.5-1.5-0.9-2.1-1.2c-0.2-0.1-0.4-0.2-0.5-0.3
					l-0.3-0.2c-0.5-0.3-1-0.7-1.5-1c-0.2-0.2-0.4-0.3-0.6-0.5l-0.3-0.2c-0.5-0.3-0.9-0.7-1.4-1c-0.3-0.2-0.5-0.4-0.8-0.6l-0.2-0.2
					c-0.1-0.1-0.2-0.2-0.4-0.3c-0.2-0.1-0.3-0.3-0.5-0.4l-0.7-0.6L7.3,488.5z M58.1,489.6c0.7-0.2,1.5-0.4,2.2-0.7
					c0.1,0,0.1,0,0.2-0.1l0.1,0c0.7-0.2,1.3-0.5,1.9-0.7l0,0c20.1-7.9,32.1-28.7,28.6-50.1l0-0.1c-0.1-0.6-0.2-1.3-0.4-2l0-0.1
					c0-0.1,0-0.1,0-0.2c-0.2-0.8-0.4-1.5-0.6-2.3c-0.9-3.1-2-6.1-3.5-9l-1.9-3.6l-1.6,3.7c-5,11.8-13,23.3-23.8,34.2
					c-9.8,10-21.5,18.1-34.2,24l-3.6,1.6l3.5,1.8c6.5,3.3,13.7,5.1,21,5.1C50.2,491.2,54.2,490.7,58.1,489.6L58.1,489.6z"/>
				<g>
					<defs>
						<path id="SVGID_1_" d="M7.3,488.5c-0.1,0-0.3,0-0.4,0.1s-0.3,0-0.4,0.1c-0.6,0.1-1.1,0.2-1.7,0.3c-0.5,0.1-1,0.1-1.4,0.2
							c-0.5,0.1-1.1,0.1-1.7,0.2c-0.5,0-1,0.1-1.4,0.1c-0.1,0-0.3,0-0.4,0s-0.2,0-0.3,0c-0.3,0-0.6,0-1,0l-0.7,0c-0.1,0-0.3,0-0.4,0
							c-0.9,0-1.8,0-2.8,0c-0.1,0-0.3,0-0.4,0l-0.3,0c-0.8,0-1.5-0.1-2.3-0.1l-0.2,0c-0.2,0-0.3,0-0.5,0c-1-0.1-1.9-0.2-2.8-0.3
							c-0.1,0-0.1,0-0.2,0l-0.2,0c-0.8-0.1-1.6-0.3-2.4-0.4c-0.3,0-0.5-0.1-0.8-0.2c-1.1-0.2-2-0.4-2.8-0.7
							c-10.9-2.8-20.8-8.9-28.3-17.3c-0.6-0.7-1.2-1.4-1.8-2.2c-1.2-1.5-2.3-3-3.3-4.6c-0.5-0.8-1-1.6-1.5-2.4
							c-7.7-13.1-9.8-28.7-5.9-43.4c0.3-1,0.6-2.1,1-3.2l0.1-0.3c0.3-1,0.7-1.9,1.1-3l0.2-0.4c0.4-0.9,0.8-1.9,1.2-2.8l0.2-0.4
							c0.4-0.9,0.9-1.8,1.4-2.7c0.1-0.1,0.2-0.3,0.2-0.4c0.5-0.9,1-1.8,1.6-2.6l0.2-0.4c0.6-0.9,1.2-1.8,1.7-2.6l0.2-0.3
							c0.7-0.9,1.3-1.8,2-2.6l0.1-0.1c0.7-0.8,1.4-1.7,2.1-2.5l0.1-0.1c0.7-0.7,1.4-1.5,2.2-2.3l0.3-0.3c0.7-0.7,1.5-1.4,2.3-2.1
							l0.3-0.3c0.8-0.6,1.6-1.3,2.4-1.9l0.4-0.3c0.8-0.6,1.7-1.2,2.5-1.8l0.4-0.3c0.9-0.6,1.8-1.1,2.6-1.6l0.3-0.2
							c0.8-0.5,1.6-0.9,2.4-1.3c-0.3,1.1-0.5,2.2-0.8,3.3c-0.6,3.1-1.3,7.2-1.9,12.1c-7.6,6.1-13,14.5-15.5,23.9
							c-0.2,0.8-0.4,1.5-0.5,2.3c0,0.1,0,0.2,0,0.2l0,0.1c-0.2,0.8-0.3,1.4-0.4,2l0,0c-3.3,21.4,8.8,42.1,29,49.8l0.1,0
							c0.7,0.3,1.4,0.5,1.9,0.7l0.1,0c0.1,0,0.1,0.1,0.2,0.1c0.7,0.2,1.5,0.5,2.2,0.6l0.2,0.1l0,0c2.7,0.7,5.4,1.1,8.1,1.3
							c0.5,0.1,1.1,0.1,1.6,0.1h0.1c6.1-0.2,12.1-1.1,18-2.8l0.1,0c13.6-4.4,27.3-13.1,38.7-24.6c12.3-12.4,20.5-25.5,24.3-38.8
							l0.3-1.1l-0.9-0.8c-10.6-9.6-25-17.2-40.7-21.3c-15.6-4.1-31.9-4.7-45.8-1.5l-1.2,0.3l-0.3,1.2c-3,13.9-2.3,30.2,2,45.8
							c3.4,12.9,9.3,25,17.4,35.6c-1.6,0.3-3.4,0.6-5.4,0.9c-2.5,0.4-5.1,0.6-7.6,0.7c-14.5-21.9-21.3-48-19.3-74.2
							c0.1-0.5,0.1-1.1,0.1-1.6c0.6-6.3,1.9-12.5,3.9-18.5c0-0.1,0-0.1,0.1-0.2c0.4-1.1,0.8-2.1,1.2-3.1l0-0.1c0.4-1,0.9-2,1.3-3
							l0.1-0.2c0.4-0.9,0.9-1.8,1.5-2.8l0.2-0.4c0.5-0.8,1-1.7,1.6-2.6l0.3-0.4c0.5-0.8,1.1-1.7,1.7-2.5l0.3-0.4
							c0.6-0.8,1.2-1.6,1.9-2.4l0.3-0.4c0.7-0.8,1.4-1.6,2-2.3l0.3-0.3c0.8-0.8,1.5-1.5,2.2-2.2l0.1-0.1c0.8-0.7,1.6-1.5,2.4-2.1
							l0.1-0.1c0.8-0.7,1.6-1.3,2.5-2l0.3-0.2c0.8-0.6,1.6-1.2,2.5-1.8l0.4-0.2c0.8-0.5,1.7-1.1,2.6-1.6l0.4-0.2
							c0.9-0.5,1.8-1,2.7-1.4l0.4-0.2c0.9-0.5,1.9-0.9,2.8-1.3l0.4-0.2c1.1-0.4,2-0.8,3-1.1l0.3-0.1c1.1-0.4,2.2-0.7,3.2-1
							c0.9-0.3,1.9-0.5,2.8-0.7c0.1,0,0.1,0,0.2,0c0.1,0,0.2,0,0.3-0.1c1-0.2,1.7-0.3,2.4-0.5l0.1,0c26.7-4.3,52.8,10.6,62.6,35.8
							l0,0c0.3,0.7,0.5,1.5,0.8,2.4c0,0.1,0.1,0.2,0.1,0.2c0,0,0,0.1,0.1,0.1c0.3,0.9,0.6,1.9,0.8,2.8c0.2,0.9,0.5,1.8,0.7,2.9
							l0.1,0.5c0.2,0.9,0.4,1.8,0.5,2.8c0,0.2,0,0.3,0.1,0.5c0.1,1,0.3,1.9,0.4,2.8l0,0.4c0.1,1,0.2,1.9,0.2,2.9l0,0.2
							c0,0.9,0,1.8,0,2.9l0,0.5c0,0.6,0,1.2-0.1,1.8c-0.6-0.6-1.2-1.2-1.8-1.7c-2.5-2.3-5.9-5.1-10.1-8.4c-0.2-1.6-0.6-3.2-1-4.8
							c-6.6-24.4-31.8-38.8-56.2-32.1c-11.1,3-20.6,10.1-26.7,19.8l-2.1,3.4l4-0.5c28.2-2.9,56.5,4.6,79.6,21
							c5.1,3.6,9.8,7.9,14,12.6c5.7,6.5,9.8,14.2,12.1,22.5l0,0c8.3,30.5-9.6,61.9-40.1,70.3c-3.9,1.1-7.9,1.7-11.9,1.9
							c-0.9,0.1-1.9,0.1-2.9,0.1c-0.2,0-0.4,0-0.5,0c-0.1,0-0.3,0-0.4,0c-0.7,0-1.3,0-1.9,0c-0.3,0-0.5,0-0.7,0l-0.4,0
							c-0.6,0-1.2-0.1-1.7-0.1c-0.3,0-0.6-0.1-0.9-0.1l-0.3,0c-0.6-0.1-1.1-0.1-1.6-0.2c-0.4-0.1-0.8-0.1-1.2-0.2l-0.1,0
							c-0.5-0.1-1.1-0.2-1.6-0.3c-0.4-0.1-0.8-0.2-1.2-0.3c-0.5-0.1-1.1-0.2-1.6-0.4c-0.4-0.1-0.8-0.2-1.2-0.3
							c-0.5-0.1-1-0.3-1.6-0.5l-0.1,0c-0.4-0.1-0.8-0.2-1.1-0.3c-0.5-0.2-1.1-0.4-1.6-0.5l-0.2-0.1c-0.3-0.1-0.6-0.2-0.9-0.3
							c-0.5-0.2-1.1-0.4-1.6-0.7l-0.3-0.1c-0.2-0.1-0.5-0.2-0.7-0.3c-0.6-0.2-1.1-0.5-1.8-0.8c-0.1-0.1-0.2-0.1-0.4-0.2
							c-0.2-0.1-0.3-0.1-0.5-0.2c-0.9-0.4-1.7-0.9-2.5-1.3c-0.1,0-0.1-0.1-0.2-0.1c-0.1,0-0.2-0.1-0.2-0.1c-0.8-0.5-1.5-0.9-2.1-1.2
							c-0.2-0.1-0.4-0.2-0.5-0.3l-0.3-0.2c-0.5-0.3-1-0.7-1.5-1c-0.2-0.2-0.4-0.3-0.6-0.5l-0.3-0.2c-0.5-0.3-0.9-0.7-1.4-1
							c-0.3-0.2-0.5-0.4-0.8-0.6l-0.2-0.2c-0.1-0.1-0.2-0.2-0.4-0.3c-0.2-0.1-0.3-0.3-0.5-0.4l-0.7-0.6L7.3,488.5z M58.1,489.6
							c0.7-0.2,1.5-0.4,2.2-0.7c0.1,0,0.1,0,0.2-0.1l0.1,0c0.7-0.2,1.3-0.5,1.9-0.7l0,0c20.1-7.9,32.1-28.7,28.6-50.1l0-0.1
							c-0.1-0.6-0.2-1.3-0.4-2l0-0.1c0-0.1,0-0.1,0-0.2c-0.2-0.8-0.4-1.5-0.6-2.3c-0.9-3.1-2-6.1-3.5-9l-1.9-3.6l-1.6,3.7
							c-5,11.8-13,23.3-23.8,34.2c-9.8,10-21.5,18.1-34.2,24l-3.6,1.6l3.5,1.8c6.5,3.3,13.7,5.1,21,5.1
							C50.2,491.2,54.2,490.7,58.1,489.6L58.1,489.6z"/>
					</defs>
					<clipPath id="SVGID_2_">
						<use xlink:href="#SVGID_1_"  style="overflow:visible;"/>
					</clipPath>
					<g id="Gruppe_295" class="st4">
						<g id="Gruppe_294" transform="translate(47.751 34.565)">
							<g id="Gruppe_292" transform="translate(21.046 110.372)">
								<path id="Pfad_298" class="st3" d="M-46.9,339.2c0.6-0.2,1.2-0.5,1.8-0.8C-45.8,338.7-46.4,339-46.9,339.2z"/>
								<path id="Pfad_299" class="st3" d="M-42.5,341.2c-1.5-0.6-3-1.2-4.4-2c-4.5,2-9.3,3.4-14.1,4.2c0.2,0.2,0.4,0.4,0.7,0.6
									c0.3,0.2,0.5,0.4,0.8,0.6c0.3,0.3,0.7,0.6,1.1,0.8c0.2,0.2,0.5,0.4,0.7,0.6c0.1,0.1,0.3,0.2,0.4,0.3
									c1.9-0.4,3.8-0.8,5.6-1.4C-48.6,344-45.5,342.7-42.5,341.2z"/>
							</g>
							<g id="Gruppe_293" transform="translate(87.754 37.601)">
								<path id="Pfad_300" class="st3" d="M-49.8,350.3c-0.2-0.4-0.4-0.8-0.6-1.2C-50.2,349.5-50,349.9-49.8,350.3z"/>
								<path id="Pfad_301" class="st3" d="M-61,341.9c1.9,1.5,3.6,3.2,5.2,5c1.5,1.7,2.7,3.6,3.8,5.6c0.6-1.1,1.2-2.2,1.7-3.3
									c-2.6-4-5.8-7.5-9.4-10.6C-60.1,339.6-60.5,340.7-61,341.9z"/>
							</g>
							<path id="Pfad_302" class="st3" d="M-55.9,339.8c-2.4,5.3-4.1,10.9-5.1,16.6c1.4-0.4,2.9-0.8,4.4-1.2
								c0.4-3.1,1.1-6.1,2.1-9.1c0.8-2.5,1.9-4.9,3.2-7.2c-1.6,0.2-3.1,0.5-4.6,0.8c0.2-0.4,0.5-0.8,0.7-1.2
								C-55.5,338.9-55.7,339.4-55.9,339.8z"/>
						</g>
					</g>
				</g>
			</g>
		</g>
	</g>
	<g id="Gruppe_300" transform="translate(195.186 3.742)">
		<path id="Pfad_304" class="st0" d="M-57.5,348.3v44.2H-61v-44.2H-57.5z"/>
		<path id="Pfad_305" class="st0" d="M0.7,365.6v27h-3.6v-26.3c0-9.1-5.3-14.4-14.4-14.4c-10.2,0.3-16.5,6.6-17.2,16.8v23.9h-3.6
			v-44.2h3.6v11.3c3-7.3,9.2-11.2,18.1-11.4C-5.7,348.2,0.7,354.8,0.7,365.6z"/>
		<path id="Pfad_306" class="st0" d="M28.9,351.5c-6.2,0-11,2.4-11,7.6c0,11.9,25.8,6,25.8,21.6c0,8.2-7.4,11.9-15.4,11.9
			c-6,0.1-11.8-2.1-16.2-6.1l1.6-2.7c4,3.7,9.3,5.7,14.8,5.6c6.2,0,11.5-2.5,11.8-8.1c0.3-12.5-25.8-6.8-25.8-22
			c0-7.7,6.7-11.1,14.5-11.1c4.5,0,8.8,1.2,12.6,3.5l-1.5,2.9C36.8,352.5,32.9,351.4,28.9,351.5z"/>
		<path id="Pfad_307" class="st0" d="M75.4,389.5c-2.7,2-5.9,3.1-9.2,3.1c-6.3,0-10.1-4.6-10.1-14v-40.1h3.5v10.9h14.9v3.1H59.7
			v25.7c0,7.4,2.5,10.9,7,10.9c2.7-0.1,5.2-1,7.4-2.5L75.4,389.5z"/>
		<path id="Pfad_308" class="st0" d="M123.8,348.3v44.2h-3.5V381c-3.3,7.3-10.2,11.8-18.8,11.8c-12.6,0-21.6-9.3-21.6-22.3
			c0-13.1,9-22.3,21.5-22.4c8.7,0,15.6,4.5,18.9,11.8v-11.6H123.8z M120.3,370.5c0-11-7.7-19-18.4-19s-18.4,8.1-18.5,19
			c0.1,11,7.7,19,18.5,19C112.6,389.5,120.3,381.5,120.3,370.5L120.3,370.5z"/>
		<path id="Pfad_309" class="st0" d="M182,365.6v27h-3.6v-26.3c0-9.1-5.3-14.4-14.4-14.4c-10.2,0.3-16.5,6.6-17.2,16.8v23.9h-3.6
			v-44.2h3.6v11.3c3-7.3,9.3-11.2,18.1-11.4C175.7,348.2,182,354.8,182,365.6z"/>
		<path id="Pfad_310" class="st0" d="M216.3,389.5c-2.7,2-5.9,3.1-9.2,3.1c-6.3,0-10.1-4.6-10.1-14v-40.1h3.5v10.9h14.9v3.1h-14.9
			v25.7c0,7.4,2.5,10.9,7,10.9c2.7-0.1,5.2-1,7.4-2.5L216.3,389.5z"/>
	</g>
	<g id="Gruppe_302" transform="translate(193.114 83.051)">
		<path id="Pfad_311" class="st3" d="M51.8,372l-1.3-2.4c0,0,0-0.1-0.1-0.1c-4.7-8.5-11.5-15.6-19.9-20.5c-8.9-5.3-18.7-8.1-27.8-8
			H2.6c-0.3,0-0.6,0-1,0l-2.7,0l-1.4,2.3c-4.6,7.7-7.1,17.9-7.1,28.6s2.5,20.9,7.1,28.6l1.4,2.3l2.7,0c0.2,0,0.4,0,0.6,0
			c0.1,0,0.2,0,0.4,0h0.2c0.2,0,0.4,0,0.6,0c8.9,0,18.5-2.8,27.2-8c8.3-4.9,15.2-12,19.9-20.5c0,0,0-0.1,0.1-0.1L51.8,372z M1.5,372
			c-0.1-7.2,1.3-14.4,4.3-21.1c6.9,0.7,13.5,2.9,19.5,6.5c6.3,3.6,11.6,8.6,15.5,14.6c-3.9,6-9.2,11.1-15.5,14.6
			c-6,3.5-12.6,5.7-19.5,6.5C2.8,386.5,1.3,379.3,1.5,372L1.5,372z"/>
		<g id="Gruppe_301" transform="translate(120.969)">
			<path id="Pfad_312" class="st3" d="M-16,375.8v26.2h-10.7v-24.8c0-8.1-4-12.1-10.9-12.1c-7.6,0-12.7,4.6-12.7,13.8v23.1H-61
				v-63.4h10.7v23.1c3.5-3.8,8.9-5.8,15.2-5.8C-24.2,355.8-16,362-16,375.8z"/>
			<path id="Pfad_313" class="st3" d="M36.6,356.3v45.7H26.5v-5.8c-3.4,4.2-8.8,6.4-14.7,6.4c-11.7,0-19.7-6.4-19.7-20.2v-26.1H2.8
				v24.6c0,8.3,3.9,12.2,10.7,12.2c7.4,0,12.5-4.6,12.5-13.8v-23.1H36.6z"/>
			<path id="Pfad_314" class="st3" d="M97.4,379.1c0,14.2-9.8,23.4-23.2,23.4c-6.2,0-11.5-2.1-15.1-6.5v5.9H48.9v-63.4h10.7v23.3
				c3.7-4.1,8.8-6.1,14.6-6.1C87.6,355.8,97.4,364.9,97.4,379.1z M86.6,379.1c0-8.7-5.8-14.3-13.5-14.3s-13.6,5.6-13.6,14.3
				s5.9,14.3,13.6,14.3S86.6,387.8,86.6,379.1L86.6,379.1z"/>
		</g>
		<path id="Pfad_315" class="st3" d="M-16.6,371.7c0-2.6-0.1-5.1-0.5-7.7c-0.7-6-2.3-11.8-4.8-17.3c-3.4-2.6-8.2-4.4-14.4-5.1
			c-2.1-0.2-4.2-0.4-6.3-0.4c-6.3-0.1-12.6,1.1-18.5,3.4c1,1.8,1.9,3.6,2.6,5.5c0.4,1,0.8,1.9,1.1,2.9c4.5-1.8,9.4-2.7,14.3-2.7
			c2.7,0,5.4,0.2,8,0.8c1.5,0.3,2.8,0.9,4.1,1.6c1.3,3.3,2.2,6.8,2.7,10.3c0.2,1.4,0.4,2.7,0.5,4.2h-27v9.2h27
			c-0.1,1.4-0.3,2.8-0.5,4.2c-0.5,3.5-1.4,7-2.7,10.3c-1.3,0.7-2.7,1.3-4.1,1.6c-2.6,0.6-5.3,0.9-8,0.8c-4.9,0-9.7-0.9-14.3-2.7
			c-0.3,1-0.7,2-1.1,2.9c-0.7,1.9-1.6,3.8-2.6,5.5c5.9,2.4,12.1,3.5,18.5,3.4c2.1,0,4.2-0.1,6.3-0.4c6.2-0.7,11-2.5,14.4-5.1
			c2.5-5.4,4.2-11.3,4.8-17.3c0.3-2.6,0.5-5.1,0.5-7.7c0-0.1,0-0.2,0-0.3S-16.6,371.8-16.6,371.7z"/>
	</g>
	<g id="Gruppe_594" transform="translate(-513.238 -1518.47)">
		<path id="Pfad_406" class="st5" d="M520.5,2007.2c-0.1,0-0.3,0-0.4,0.1s-0.3,0-0.4,0.1c-0.6,0.1-1.1,0.2-1.7,0.3
			c-0.5,0.1-1,0.1-1.4,0.2c-0.5,0.1-1.1,0.1-1.7,0.2c-0.5,0-1,0.1-1.4,0.1c-0.1,0-0.3,0-0.4,0s-0.2,0-0.3,0c-0.3,0-0.6,0-1,0l-0.7,0
			c-0.1,0-0.3,0-0.4,0c-0.9,0-1.8,0-2.8,0c-0.1,0-0.3,0-0.4,0l-0.3,0c-0.8,0-1.5-0.1-2.3-0.1l-0.2,0c-0.2,0-0.3,0-0.5,0
			c-1-0.1-1.9-0.2-2.8-0.3c-0.1,0-0.2,0-0.2,0l-0.2,0c-0.8-0.1-1.6-0.3-2.4-0.4c-0.3,0-0.5-0.1-0.8-0.2c-1.1-0.2-2-0.4-2.8-0.7
			c-10.9-2.8-20.8-8.9-28.3-17.3c-0.6-0.7-1.2-1.4-1.8-2.1c-1.2-1.5-2.3-3-3.3-4.6c-0.5-0.8-1-1.6-1.5-2.4
			c-7.7-13.1-9.8-28.7-5.9-43.4c0.3-1,0.6-2.1,1-3.2l0.1-0.3c0.3-1,0.7-1.9,1.1-3l0.2-0.4c0.4-0.9,0.8-1.9,1.2-2.8l0.2-0.4
			c0.4-0.9,0.9-1.8,1.4-2.7c0.1-0.1,0.2-0.3,0.2-0.4c0.5-0.9,1-1.8,1.5-2.6l0.2-0.4c0.6-0.9,1.2-1.8,1.7-2.6l0.2-0.3
			c0.7-0.9,1.3-1.8,2-2.6l0.1-0.1c0.7-0.8,1.4-1.7,2.1-2.5l0.1-0.1c0.7-0.7,1.4-1.5,2.2-2.3l0.3-0.2c0.7-0.7,1.5-1.4,2.3-2.1
			l0.3-0.3c0.8-0.6,1.6-1.3,2.4-1.9l0.4-0.3c0.8-0.6,1.7-1.2,2.5-1.8l0.4-0.3c0.9-0.6,1.8-1.1,2.6-1.6l0.3-0.2
			c0.8-0.5,1.6-0.9,2.3-1.3c-0.3,1.1-0.5,2.2-0.8,3.3c-0.6,3.1-1.3,7.2-2,12.1c-7.6,6.1-13,14.5-15.5,23.9c-0.2,0.8-0.4,1.5-0.5,2.3
			c0,0.1,0,0.2,0,0.2l0,0.1c-0.2,0.8-0.3,1.4-0.4,2l0,0c-3.3,21.4,8.8,42.1,29,49.8l0.1,0c0.7,0.3,1.4,0.5,1.9,0.7l0.1,0
			c0.1,0,0.1,0.1,0.2,0.1c0.7,0.2,1.5,0.5,2.2,0.7l0.2,0.1l0,0c2.7,0.7,5.4,1.1,8.1,1.3c0.5,0.1,1.1,0.1,1.6,0.1h0.1
			c6.1-0.2,12.1-1.1,18-2.8l0.1,0c13.6-4.4,27.3-13.1,38.7-24.6c12.3-12.4,20.5-25.5,24.3-38.8l0.3-1.1l-0.9-0.8
			c-10.6-9.6-25-17.2-40.7-21.3c-15.6-4.1-31.9-4.7-45.8-1.5l-1.2,0.3l-0.3,1.2c-3,13.9-2.3,30.2,2,45.8c3.4,12.9,9.3,25,17.4,35.6
			c-1.6,0.3-3.4,0.6-5.4,0.9c-2.5,0.4-5.1,0.6-7.6,0.7c-14.5-21.9-21.3-48-19.3-74.2c0.1-0.5,0.1-1.1,0.1-1.6
			c0.6-6.3,1.9-12.5,3.9-18.5c0-0.1,0-0.1,0.1-0.2c0.4-1.1,0.8-2.1,1.2-3.1l0-0.1c0.4-1,0.9-2,1.3-3l0.1-0.2
			c0.4-0.9,0.9-1.8,1.5-2.8l0.2-0.4c0.5-0.8,1-1.7,1.6-2.6l0.3-0.4c0.5-0.8,1.1-1.7,1.7-2.5l0.3-0.4c0.6-0.8,1.2-1.6,1.9-2.4
			l0.3-0.4c0.7-0.8,1.4-1.6,2-2.3l0.3-0.3c0.8-0.8,1.5-1.5,2.2-2.2l0.1-0.1c0.8-0.7,1.6-1.5,2.4-2.1l0.1-0.1c0.8-0.7,1.6-1.3,2.5-2
			l0.3-0.2c0.8-0.6,1.6-1.2,2.5-1.8l0.4-0.2c0.8-0.5,1.7-1.1,2.6-1.6l0.4-0.2c0.9-0.5,1.8-1,2.7-1.4l0.4-0.2
			c0.9-0.5,1.9-0.9,2.8-1.3l0.4-0.2c1.1-0.4,2-0.8,3-1.1l0.3-0.1c1.1-0.4,2.2-0.7,3.2-1c0.9-0.3,1.9-0.5,2.8-0.7c0.1,0,0.1,0,0.2,0
			c0.1,0,0.2,0,0.3-0.1c1-0.2,1.7-0.3,2.4-0.5l0.1,0c26.7-4.4,52.8,10.6,62.6,35.8l0,0c0.3,0.7,0.5,1.5,0.8,2.4
			c0,0.1,0.1,0.2,0.1,0.2c0,0,0,0.1,0.1,0.1c0.3,0.9,0.6,1.9,0.8,2.8c0.2,0.9,0.5,1.8,0.7,2.9l0.1,0.4c0.2,0.9,0.4,1.8,0.5,2.8
			c0,0.2,0,0.3,0.1,0.5c0.1,1,0.3,1.9,0.4,2.8l0,0.4c0.1,1,0.2,1.9,0.2,2.8l0,0.2c0,0.9,0,1.8,0,2.9v0.5c0,0.6,0,1.2-0.1,1.8
			c-0.6-0.6-1.2-1.2-1.8-1.7c-2.5-2.3-5.9-5.1-10.1-8.4c-0.2-1.6-0.6-3.2-1-4.8c-6.6-24.4-31.8-38.8-56.2-32.1
			c-11.1,3-20.6,10.1-26.7,19.8l-2.1,3.4l4-0.5c28.2-2.9,56.5,4.6,79.6,21c5.1,3.6,9.8,7.9,14,12.6c5.7,6.5,9.8,14.2,12.1,22.5l0,0
			c8.3,30.5-9.6,61.9-40.1,70.3c-3.9,1.1-7.9,1.7-11.9,1.9c-0.9,0.1-1.9,0.1-2.9,0.1c-0.2,0-0.4,0-0.5,0c-0.1,0-0.3,0-0.4,0
			c-0.7,0-1.3,0-1.9,0c-0.3,0-0.5,0-0.7,0l-0.4,0c-0.6,0-1.2-0.1-1.7-0.1c-0.3,0-0.6-0.1-0.9-0.1l-0.3,0c-0.5-0.1-1.1-0.1-1.6-0.2
			c-0.4-0.1-0.8-0.1-1.2-0.2l-0.1,0c-0.5-0.1-1.1-0.2-1.6-0.3c-0.4-0.1-0.8-0.2-1.2-0.3c-0.5-0.1-1.1-0.2-1.6-0.4
			c-0.4-0.1-0.8-0.2-1.2-0.3c-0.5-0.1-1-0.3-1.6-0.5l-0.1,0c-0.4-0.1-0.8-0.2-1.1-0.3c-0.5-0.2-1-0.4-1.6-0.5l-0.2-0.1
			c-0.3-0.1-0.6-0.2-0.9-0.3c-0.5-0.2-1.1-0.4-1.6-0.7l-0.3-0.1c-0.2-0.1-0.5-0.2-0.7-0.3c-0.6-0.2-1.1-0.5-1.8-0.8
			c-0.1-0.1-0.2-0.1-0.4-0.2c-0.2-0.1-0.3-0.1-0.5-0.2c-0.9-0.4-1.7-0.9-2.5-1.3c-0.1,0-0.1-0.1-0.2-0.1c-0.1,0-0.2-0.1-0.2-0.1
			c-0.8-0.5-1.5-0.9-2.1-1.2c-0.2-0.1-0.3-0.2-0.5-0.3l-0.3-0.2c-0.5-0.3-1-0.7-1.5-1c-0.2-0.2-0.4-0.3-0.6-0.5l-0.3-0.2
			c-0.5-0.3-0.9-0.7-1.4-1c-0.3-0.2-0.5-0.4-0.8-0.6l-0.2-0.2c-0.1-0.1-0.2-0.2-0.4-0.3c-0.2-0.1-0.3-0.3-0.5-0.4l-0.7-0.6
			L520.5,2007.2z M571.4,2008.3c0.7-0.2,1.5-0.4,2.2-0.7c0.1,0,0.1,0,0.2-0.1l0.1,0c0.7-0.2,1.3-0.5,1.9-0.7l0,0
			c20.1-7.9,32.1-28.7,28.6-50.1l0-0.1c-0.1-0.6-0.2-1.3-0.4-2l0-0.1c0-0.1,0-0.1,0-0.2c-0.2-0.8-0.4-1.5-0.6-2.3
			c-0.9-3.1-2-6.1-3.5-9l-1.9-3.6l-1.6,3.7c-5,11.8-13,23.3-23.8,34.2c-9.8,10-21.5,18.1-34.2,24l-3.6,1.6l3.5,1.8
			c6.5,3.3,13.7,5.1,21,5.1C563.4,2009.9,567.5,2009.4,571.4,2008.3L571.4,2008.3z"/>
		<g id="Gruppe_598" transform="translate(513.238 1518.689)">
			<g>
				<defs>
					<path id="SVGID_3_" d="M7.3,488.5c-0.1,0-0.3,0-0.4,0.1s-0.3,0-0.4,0.1c-0.6,0.1-1.1,0.2-1.7,0.3c-0.5,0.1-1,0.1-1.4,0.2
						c-0.5,0.1-1.1,0.1-1.7,0.2c-0.5,0-1,0.1-1.4,0.1c-0.1,0-0.3,0-0.4,0s-0.2,0-0.3,0c-0.3,0-0.6,0-1,0l-0.7,0c-0.1,0-0.3,0-0.4,0
						c-0.9,0-1.8,0-2.8,0c-0.1,0-0.3,0-0.4,0l-0.3,0c-0.8,0-1.5-0.1-2.3-0.1l-0.2,0c-0.2,0-0.3,0-0.5,0c-1-0.1-1.9-0.2-2.8-0.3
						c-0.1,0-0.2,0-0.2,0l-0.2,0c-0.8-0.1-1.6-0.3-2.4-0.4c-0.3,0-0.5-0.1-0.8-0.2c-1.1-0.2-2-0.4-2.8-0.7
						c-10.9-2.8-20.8-8.9-28.3-17.3c-0.6-0.7-1.2-1.4-1.8-2.1c-1.2-1.5-2.3-3-3.3-4.6c-0.5-0.8-1-1.6-1.5-2.4
						c-7.7-13.1-9.8-28.7-5.9-43.4c0.3-1,0.6-2.1,1-3.2l0.1-0.3c0.3-1,0.7-1.9,1.1-3l0.2-0.4c0.4-0.9,0.8-1.9,1.2-2.8l0.2-0.4
						c0.4-0.9,0.9-1.8,1.4-2.7c0.1-0.1,0.2-0.3,0.2-0.4c0.5-0.9,1-1.8,1.5-2.6l0.2-0.4c0.6-0.9,1.2-1.8,1.7-2.6l0.2-0.3
						c0.7-0.9,1.3-1.8,2-2.6l0.1-0.1c0.7-0.8,1.4-1.7,2.1-2.5l0.1-0.1c0.7-0.7,1.4-1.5,2.2-2.3l0.3-0.2c0.7-0.7,1.5-1.4,2.3-2.1
						l0.3-0.3c0.8-0.6,1.6-1.3,2.4-1.9l0.4-0.3c0.8-0.6,1.7-1.2,2.5-1.8l0.4-0.3c0.9-0.6,1.8-1.1,2.6-1.6l0.3-0.2
						c0.8-0.5,1.6-0.9,2.3-1.3c-0.3,1.1-0.5,2.2-0.8,3.3c-0.6,3.1-1.3,7.2-2,12.1c-7.6,6.1-13,14.5-15.5,23.9
						c-0.2,0.8-0.4,1.5-0.5,2.3c0,0.1,0,0.2,0,0.2l0,0.1c-0.2,0.8-0.3,1.4-0.4,2l0,0c-3.3,21.4,8.8,42.1,29,49.8l0.1,0
						c0.7,0.3,1.4,0.5,1.9,0.7l0.1,0c0.1,0,0.1,0.1,0.2,0.1c0.7,0.2,1.5,0.5,2.2,0.7l0.2,0.1l0,0c2.7,0.7,5.4,1.1,8.1,1.3
						c0.5,0.1,1.1,0.1,1.6,0.1h0.1c6.1-0.2,12.1-1.1,18-2.8l0.1,0c13.6-4.4,27.3-13.1,38.7-24.6c12.3-12.4,20.5-25.5,24.3-38.8
						l0.3-1.1l-0.9-0.8c-10.6-9.6-25-17.2-40.7-21.3c-15.6-4.1-31.9-4.7-45.8-1.5l-1.2,0.3l-0.3,1.2c-3,13.9-2.3,30.2,2,45.8
						c3.4,12.9,9.3,25,17.4,35.6c-1.6,0.3-3.4,0.6-5.4,0.9c-2.5,0.4-5.1,0.6-7.6,0.7c-14.5-21.9-21.3-48-19.3-74.2
						c0.1-0.5,0.1-1.1,0.1-1.6c0.6-6.3,1.9-12.5,3.9-18.5c0-0.1,0-0.1,0.1-0.2c0.4-1.1,0.8-2.1,1.2-3.1l0-0.1c0.4-1,0.9-2,1.3-3
						l0.1-0.2c0.4-0.9,0.9-1.8,1.5-2.8l0.2-0.4c0.5-0.8,1-1.7,1.6-2.6l0.3-0.4c0.5-0.8,1.1-1.7,1.7-2.5l0.3-0.4
						c0.6-0.8,1.2-1.6,1.9-2.4l0.3-0.4c0.7-0.8,1.4-1.6,2-2.3l0.3-0.3c0.8-0.8,1.5-1.5,2.2-2.2l0.1-0.1c0.8-0.7,1.6-1.5,2.4-2.1
						l0.1-0.1c0.8-0.7,1.6-1.3,2.5-2l0.3-0.2c0.8-0.6,1.6-1.2,2.5-1.8l0.4-0.2c0.8-0.5,1.7-1.1,2.6-1.6l0.4-0.2
						c0.9-0.5,1.8-1,2.7-1.4l0.4-0.2c0.9-0.5,1.9-0.9,2.8-1.3l0.4-0.2c1.1-0.4,2-0.8,3-1.1l0.3-0.1c1.1-0.4,2.2-0.7,3.2-1
						c0.9-0.3,1.9-0.5,2.8-0.7c0.1,0,0.1,0,0.2,0c0.1,0,0.2,0,0.3-0.1c1-0.2,1.7-0.3,2.4-0.5l0.1,0c26.7-4.4,52.8,10.6,62.6,35.8
						l0,0c0.3,0.7,0.5,1.5,0.8,2.4c0,0.1,0.1,0.2,0.1,0.2c0,0,0,0.1,0.1,0.1c0.3,0.9,0.6,1.9,0.8,2.8c0.2,0.9,0.5,1.8,0.7,2.9
						l0.1,0.4c0.2,0.9,0.4,1.8,0.5,2.8c0,0.2,0,0.3,0.1,0.5c0.1,1,0.3,1.9,0.4,2.8l0,0.4c0.1,1,0.2,1.9,0.2,2.8l0,0.2
						c0,0.9,0,1.8,0,2.9v0.5c0,0.6,0,1.2-0.1,1.8c-0.6-0.6-1.2-1.2-1.8-1.7c-2.5-2.3-5.9-5.1-10.1-8.4c-0.2-1.6-0.6-3.2-1-4.8
						c-6.6-24.4-31.8-38.8-56.2-32.1c-11.1,3-20.6,10.1-26.7,19.8l-2.1,3.4l4-0.5c28.2-2.9,56.5,4.6,79.6,21
						c5.1,3.6,9.8,7.9,14,12.6c5.7,6.5,9.8,14.2,12.1,22.5l0,0c8.3,30.5-9.6,61.9-40.1,70.3c-3.9,1.1-7.9,1.7-11.9,1.9
						c-0.9,0.1-1.9,0.1-2.9,0.1c-0.2,0-0.4,0-0.5,0c-0.1,0-0.3,0-0.4,0c-0.7,0-1.3,0-1.9,0c-0.3,0-0.5,0-0.7,0l-0.4,0
						c-0.6,0-1.2-0.1-1.7-0.1c-0.3,0-0.6-0.1-0.9-0.1l-0.3,0c-0.5-0.1-1.1-0.1-1.6-0.2c-0.4-0.1-0.8-0.1-1.2-0.2l-0.1,0
						c-0.5-0.1-1.1-0.2-1.6-0.3c-0.4-0.1-0.8-0.2-1.2-0.3c-0.5-0.1-1.1-0.2-1.6-0.4c-0.4-0.1-0.8-0.2-1.2-0.3
						c-0.5-0.1-1-0.3-1.6-0.5l-0.1,0c-0.4-0.1-0.8-0.2-1.1-0.3c-0.5-0.2-1-0.4-1.6-0.5l-0.2-0.1c-0.3-0.1-0.6-0.2-0.9-0.3
						c-0.5-0.2-1.1-0.4-1.6-0.7l-0.3-0.1c-0.2-0.1-0.5-0.2-0.7-0.3c-0.6-0.2-1.1-0.5-1.8-0.8c-0.1-0.1-0.2-0.1-0.4-0.2
						c-0.2-0.1-0.3-0.1-0.5-0.2c-0.9-0.4-1.7-0.9-2.5-1.3c-0.1,0-0.1-0.1-0.2-0.1c-0.1,0-0.2-0.1-0.2-0.1c-0.8-0.5-1.5-0.9-2.1-1.2
						c-0.2-0.1-0.3-0.2-0.5-0.3l-0.3-0.2c-0.5-0.3-1-0.7-1.5-1c-0.2-0.2-0.4-0.3-0.6-0.5l-0.3-0.2c-0.5-0.3-0.9-0.7-1.4-1
						c-0.3-0.2-0.5-0.4-0.8-0.6l-0.2-0.2c-0.1-0.1-0.2-0.2-0.4-0.3c-0.2-0.1-0.3-0.3-0.5-0.4l-0.7-0.6L7.3,488.5z M58.1,489.6
						c0.7-0.2,1.5-0.4,2.2-0.7c0.1,0,0.1,0,0.2-0.1l0.1,0c0.7-0.2,1.3-0.5,1.9-0.7l0,0c20.1-7.9,32.1-28.7,28.6-50.1l0-0.1
						c-0.1-0.6-0.2-1.3-0.4-2l0-0.1c0-0.1,0-0.1,0-0.2c-0.2-0.8-0.4-1.5-0.6-2.3c-0.9-3.1-2-6.1-3.5-9l-1.9-3.6l-1.6,3.7
						c-5,11.8-13,23.3-23.8,34.2c-9.8,10-21.5,18.1-34.2,24l-3.6,1.6l3.5,1.8c6.5,3.3,13.7,5.1,21,5.1
						C50.2,491.2,54.2,490.7,58.1,489.6L58.1,489.6z"/>
				</defs>
				<clipPath id="SVGID_4_">
					<use xlink:href="#SVGID_3_"  style="overflow:visible;"/>
				</clipPath>
				<g id="Gruppe_597" class="st6">
					<g id="Gruppe_596" transform="translate(47.752 34.564)" class="st7">
						<g id="Gruppe_594-2" transform="translate(21.045 110.372)">
							<path id="Pfad_407" class="st8" d="M-46.9,339.2c0.6-0.2,1.2-0.5,1.8-0.8C-45.8,338.7-46.4,339-46.9,339.2z"/>
							<path id="Pfad_408" class="st8" d="M-42.5,341.2c-1.5-0.6-3-1.2-4.4-2c-4.5,2-9.3,3.4-14.1,4.2c0.2,0.2,0.4,0.4,0.7,0.6
								c0.3,0.2,0.5,0.4,0.8,0.6c0.3,0.3,0.7,0.6,1.1,0.8c0.2,0.2,0.5,0.4,0.7,0.6c0.1,0.1,0.3,0.2,0.4,0.3c1.9-0.4,3.8-0.8,5.6-1.4
								C-48.6,344-45.5,342.7-42.5,341.2z"/>
						</g>
						<g id="Gruppe_595" transform="translate(87.753 37.602)">
							<path id="Pfad_409" class="st8" d="M-49.7,350.3c-0.2-0.4-0.4-0.8-0.7-1.2C-50.2,349.5-50,349.9-49.7,350.3z"/>
							<path id="Pfad_410" class="st8" d="M-61,341.9c1.9,1.5,3.6,3.2,5.2,5c1.5,1.7,2.7,3.6,3.8,5.6c0.6-1.1,1.2-2.2,1.7-3.3
								c-2.6-4-5.8-7.5-9.4-10.6C-60.1,339.6-60.5,340.7-61,341.9z"/>
						</g>
						<path id="Pfad_411" class="st8" d="M-55.9,339.8c-2.4,5.3-4.1,10.9-5.1,16.6c1.4-0.4,2.9-0.8,4.4-1.2c0.4-3.1,1.1-6.1,2.1-9.1
							c0.8-2.5,1.9-4.9,3.2-7.2c-1.6,0.2-3.1,0.5-4.6,0.8c0.2-0.4,0.5-0.8,0.7-1.3C-55.5,338.9-55.7,339.4-55.9,339.8z"/>
					</g>
				</g>
			</g>
		</g>
	</g>
</g>
</svg>
