<?xml version="1.0" encoding="utf-8"?>
<svg viewBox="-0.007 0.032 164.348 164.366" xmlns="http://www.w3.org/2000/svg">
  <defs>
    <clipPath id="clip-path">
      <path id="Pfad_303" data-name="Pfad 303" d="M151.9,537.187c-.142.026-.283.049-.425.07s-.287.045-.432.072c-.558.1-1.114.2-1.676.28-.476.072-.952.133-1.426.192-.549.068-1.1.129-1.657.18q-.722.068-1.447.119c-.126.009-.25.019-.374.031s-.224.021-.336.028c-.318.017-.639.026-.957.037l-.665.023c-.126.005-.252.01-.385.012-.9.019-1.837.016-2.79-.01-.142,0-.283-.01-.423-.018l-.3-.012c-.752-.031-1.51-.077-2.251-.136l-.248-.019c-.168-.014-.336-.026-.506-.042-1-.093-1.917-.2-2.813-.329-.075-.01-.15-.023-.227-.037l-.243-.038c-.785-.119-1.6-.261-2.418-.422-.25-.049-.5-.1-.754-.15-1.085-.228-1.98-.436-2.815-.656a56.871,56.871,0,0,1-28.255-17.339c-.614-.694-1.223-1.419-1.809-2.15-1.172-1.464-2.286-3.007-3.315-4.587-.516-.794-1.022-1.611-1.5-2.433a56.869,56.869,0,0,1-5.918-43.409c.269-1.029.581-2.078.952-3.206l.084-.269c.318-.952.673-1.926,1.09-2.975l.154-.4c.373-.917.787-1.865,1.233-2.815l.206-.441c.434-.9.9-1.812,1.385-2.7.077-.143.156-.283.236-.429.506-.906,1.027-1.786,1.55-2.617l.236-.369c.581-.906,1.165-1.77,1.737-2.566l.191-.259c.682-.936,1.322-1.77,1.973-2.566l.054-.065c.679-.827,1.4-1.655,2.139-2.463l.112-.124c.675-.729,1.4-1.473,2.223-2.269l.255-.25c.712-.681,1.457-1.356,2.279-2.064l.339-.292c.759-.642,1.553-1.279,2.363-1.893l.385-.289c.82-.616,1.653-1.2,2.472-1.751l.387-.254c.908-.595,1.762-1.125,2.612-1.618l.336-.192c.827-.474,1.6-.9,2.351-1.281q-.438,1.674-.771,3.3c-.64,3.124-1.294,7.191-1.95,12.1A46.066,46.066,0,0,0,96.627,469.36c-.2.752-.378,1.516-.535,2.267q-.024.113-.042.226l-.017.093c-.156.768-.271,1.4-.364,1.989l-.007.047a45.929,45.929,0,0,0,29.04,49.837l.1.04c.682.255,1.361.481,1.882.651l.107.039c.073.024.145.051.224.075.736.234,1.489.453,2.237.649l.24.063h0a45.538,45.538,0,0,0,8.1,1.293,14.3,14.3,0,0,0,1.616.1h.066a69.908,69.908,0,0,0,17.983-2.82l.051-.016c13.562-4.382,27.291-13.113,38.658-24.583,12.3-12.415,20.486-25.482,24.333-38.836l.327-1.142-.878-.8c-10.589-9.6-25.048-17.154-40.718-21.275-15.614-4.109-31.874-4.657-45.788-1.541l-1.191.266-.255,1.195c-2.984,13.931-2.285,30.184,1.966,45.767a100.865,100.865,0,0,0,17.446,35.563c-1.6.341-3.378.644-5.386.915a69.408,69.408,0,0,1-7.625.658,117.444,117.444,0,0,1-19.262-74.239c.056-.541.108-1.071.145-1.566a81.993,81.993,0,0,1,3.929-18.46c.024-.061.049-.124.07-.186.383-1.1.763-2.1,1.165-3.072l.031-.072c.4-.969.854-1.966,1.34-2.967l.1-.217c.436-.889.917-1.8,1.471-2.79l.2-.359c.481-.843,1.013-1.72,1.583-2.606l.266-.411c.537-.82,1.113-1.651,1.711-2.468l.3-.408c.616-.824,1.24-1.618,1.861-2.365l.3-.36c.694-.822,1.356-1.567,2.026-2.279l.264-.274c.782-.822,1.511-1.55,2.234-2.23l.143-.131c.789-.738,1.6-1.457,2.416-2.138l.093-.08c.784-.651,1.608-1.3,2.519-1.973l.275-.2c.794-.582,1.625-1.156,2.545-1.756l.371-.245c.82-.527,1.7-1.055,2.6-1.569l.429-.241c.887-.495,1.791-.971,2.689-1.41l.434-.21c.945-.453,1.889-.878,2.806-1.258l.39-.157c1.055-.429,2.027-.794,2.965-1.116l.271-.089c1.139-.383,2.185-.705,3.2-.981.92-.252,1.873-.486,2.834-.7.068-.016.136-.026.2-.04.093-.017.185-.035.276-.054.957-.2,1.693-.343,2.407-.462l.142-.023a57.247,57.247,0,0,1,62.588,35.84l.014.031c.269.7.548,1.476.848,2.379.026.079.054.157.084.234.018.049.035.1.051.145.308.943.591,1.884.84,2.8.236.864.464,1.8.7,2.864l.1.45c.185.889.357,1.819.509,2.774.024.159.049.32.079.512.149,1,.266,1.919.355,2.816l.03.352c.093.974.159,1.931.2,2.85l.009.165c.037.9.049,1.844.038,2.9l-.005.46c-.01.605-.031,1.218-.063,1.828q-.918-.9-1.842-1.735c-2.509-2.269-5.92-5.089-10.144-8.388a44.071,44.071,0,0,0-1.02-4.833,45.744,45.744,0,0,0-82.861-12.34l-2.131,3.369,3.96-.458a116.973,116.973,0,0,1,79.583,20.955,81.729,81.729,0,0,1,14.007,12.6,57.568,57.568,0,0,1,12.061,22.545h0a57.2,57.2,0,0,1-51.944,72.206c-.92.051-1.861.079-2.874.084-.177.005-.353,0-.53-.007-.14,0-.28-.007-.418-.007-.715-.009-1.312-.018-1.917-.044-.25-.012-.5-.03-.747-.047l-.381-.026c-.577-.037-1.155-.073-1.732-.129-.3-.028-.605-.063-.908-.1l-.285-.033c-.551-.063-1.1-.13-1.648-.208-.387-.056-.771-.121-1.156-.185l-.061-.011c-.537-.089-1.072-.184-1.606-.289-.408-.079-.812-.164-1.218-.254-.528-.116-1.055-.238-1.583-.371q-.6-.147-1.2-.31c-.523-.143-1.044-.3-1.566-.453l-.052-.016c-.376-.114-.75-.226-1.123-.348-.528-.172-1.051-.357-1.576-.544l-.241-.086c-.294-.1-.588-.208-.883-.322-.537-.2-1.065-.423-1.615-.652l-.336-.138c-.231-.094-.465-.189-.7-.292-.563-.247-1.111-.507-1.768-.824-.121-.06-.243-.116-.366-.172-.154-.072-.308-.142-.458-.219-.871-.436-1.721-.887-2.528-1.34-.054-.032-.107-.065-.159-.1-.077-.047-.154-.095-.234-.14-.785-.451-1.462-.857-2.068-1.24-.177-.112-.352-.227-.525-.344l-.348-.234c-.513-.336-1.023-.672-1.527-1.027-.217-.152-.429-.311-.642-.469l-.318-.236c-.455-.336-.911-.672-1.359-1.025-.268-.21-.532-.425-.794-.642l-.187-.154c-.124-.1-.248-.2-.373-.3-.159-.126-.318-.254-.474-.385l-.7-.595Zm50.859,1.081c.735-.2,1.487-.427,2.234-.672.072-.023.143-.049.215-.075l.086-.031c.729-.243,1.335-.46,1.929-.687l.042-.017A45.925,45.925,0,0,0,235.885,486.7l-.01-.075c-.1-.612-.227-1.256-.392-2.029l-.012-.072c-.014-.068-.026-.135-.04-.2-.168-.766-.355-1.529-.558-2.267a45.972,45.972,0,0,0-3.518-8.981l-1.858-3.6L227.91,473.2c-5.035,11.822-13.043,23.322-23.8,34.178a114.08,114.08,0,0,1-34.243,23.955l-3.644,1.618,3.548,1.819a46.033,46.033,0,0,0,21.014,5.1A45.542,45.542,0,0,0,202.762,538.268Z" transform="translate(-83.633 -387.142)" fill="#f4f5f9"/>
    </clipPath>
    <clipPath id="clip-path-2">
      <path id="Pfad_412" data-name="Pfad 412" d="M581.507,1668.734c-.14.027-.282.049-.424.071s-.288.045-.433.071c-.557.1-1.114.2-1.676.279-.475.072-.95.134-1.425.193-.55.068-1.1.128-1.656.18-.482.046-.964.086-1.448.119-.125.008-.25.02-.374.032s-.223.021-.336.027c-.318.018-.637.027-.956.036l-.664.023c-.127.005-.253.011-.386.013-.9.019-1.836.016-2.789-.01-.141,0-.283-.011-.424-.017l-.3-.013c-.752-.031-1.509-.076-2.251-.136l-.248-.02c-.168-.013-.336-.026-.505-.042-1-.093-1.918-.2-2.813-.329-.076-.01-.151-.024-.227-.036l-.243-.039c-.787-.12-1.6-.262-2.418-.422-.251-.049-.5-.1-.754-.151-1.086-.227-1.98-.436-2.815-.656a56.861,56.861,0,0,1-28.254-17.339c-.614-.695-1.223-1.418-1.808-2.149-1.172-1.465-2.288-3.008-3.315-4.588-.516-.793-1.021-1.611-1.5-2.432a56.871,56.871,0,0,1-5.919-43.409c.271-1.028.582-2.078.952-3.206l.085-.271c.317-.952.673-1.926,1.088-2.975l.155-.4c.372-.918.786-1.865,1.232-2.816l.207-.441c.434-.9.9-1.813,1.385-2.7.078-.143.156-.285.238-.429.5-.905,1.026-1.785,1.549-2.616l.237-.37c.58-.906,1.164-1.769,1.736-2.566l.192-.26c.681-.935,1.322-1.769,1.973-2.566l.054-.065c.677-.826,1.4-1.654,2.139-2.461l.111-.124c.675-.731,1.4-1.473,2.224-2.27l.254-.249c.712-.682,1.458-1.357,2.28-2.064l.339-.292c.759-.642,1.553-1.279,2.363-1.894l.384-.289c.822-.615,1.654-1.2,2.472-1.75l.387-.254c.907-.595,1.762-1.125,2.611-1.619l.336-.191c.828-.474,1.6-.9,2.35-1.281q-.438,1.674-.771,3.3c-.64,3.124-1.3,7.19-1.95,12.1a46.061,46.061,0,0,0-15.527,23.933c-.2.751-.378,1.515-.535,2.267-.016.075-.03.15-.043.225l-.017.092c-.156.768-.272,1.4-.364,1.99l-.006.047a45.926,45.926,0,0,0,29.039,49.837l.1.04c.683.256,1.36.482,1.882.652l.107.037c.072.026.145.051.223.075.736.234,1.49.453,2.239.65l.239.063h0a45.643,45.643,0,0,0,8.1,1.292,14.378,14.378,0,0,0,1.615.1h.067a69.925,69.925,0,0,0,17.983-2.82l.051-.016c13.562-4.382,27.291-13.113,38.657-24.584,12.3-12.414,20.487-25.481,24.332-38.836l.328-1.141-.88-.8c-10.587-9.6-25.048-17.153-40.717-21.275-15.614-4.109-31.875-4.656-45.788-1.541l-1.191.266-.256,1.194c-2.984,13.931-2.286,30.186,1.966,45.768a100.839,100.839,0,0,0,17.445,35.563c-1.595.342-3.379.645-5.386.915a69.476,69.476,0,0,1-7.626.658,117.453,117.453,0,0,1-19.261-74.239c.057-.541.108-1.07.146-1.565a81.948,81.948,0,0,1,3.928-18.461c.025-.062.049-.124.07-.185.384-1.1.763-2.1,1.165-3.071l.031-.072c.4-.969.854-1.966,1.34-2.967l.1-.216c.436-.889.917-1.8,1.472-2.791l.2-.358c.481-.843,1.014-1.719,1.584-2.606l.265-.411c.537-.82,1.113-1.651,1.712-2.468l.3-.408c.615-.824,1.24-1.618,1.861-2.365l.3-.36c.694-.822,1.357-1.567,2.026-2.279l.265-.276c.781-.821,1.51-1.549,2.233-2.229l.144-.132c.789-.739,1.6-1.457,2.416-2.138l.093-.08c.783-.651,1.607-1.3,2.519-1.973l.274-.206c.795-.583,1.625-1.156,2.546-1.757l.371-.244c.82-.527,1.695-1.055,2.6-1.57l.428-.242c.888-.5,1.792-.97,2.69-1.41l.434-.21c.944-.454,1.889-.878,2.8-1.258l.391-.157c1.055-.429,2.027-.795,2.964-1.116l.272-.089c1.138-.384,2.186-.7,3.2-.982.921-.252,1.873-.486,2.834-.7.068-.016.137-.027.205-.04.093-.017.185-.035.275-.054.957-.2,1.694-.345,2.408-.463l.142-.022A57.245,57.245,0,0,1,660.14,1555.3l.014.032c.268.7.546,1.477.848,2.379.026.08.055.157.083.236.018.048.036.1.052.145.308.942.591,1.883.841,2.8.235.863.463,1.8.7,2.864l.1.449c.186.889.357,1.82.509,2.774.026.16.05.32.079.513.149,1,.265,1.919.355,2.816l.031.352c.091.974.158,1.931.2,2.85l.009.164c.036.895.049,1.843.038,2.9l0,.46c-.011.605-.032,1.217-.063,1.828q-.919-.9-1.842-1.737c-2.509-2.268-5.919-5.088-10.143-8.387a44.247,44.247,0,0,0-1.02-4.833,45.744,45.744,0,0,0-82.861-12.341l-2.131,3.369,3.96-.458a116.984,116.984,0,0,1,79.584,20.956,81.8,81.8,0,0,1,14.006,12.6,57.586,57.586,0,0,1,12.061,22.546h0a57.2,57.2,0,0,1-51.944,72.206c-.921.051-1.861.079-2.874.085-.177,0-.353,0-.53-.008-.14,0-.281-.007-.419-.008-.716-.008-1.312-.016-1.918-.044-.25-.011-.5-.029-.746-.046l-.382-.026c-.577-.037-1.153-.074-1.732-.13-.3-.028-.6-.064-.907-.1l-.286-.034c-.55-.063-1.1-.13-1.647-.209-.387-.056-.771-.12-1.156-.185l-.062-.01c-.537-.089-1.072-.185-1.606-.289-.407-.08-.812-.165-1.217-.254-.528-.116-1.055-.239-1.583-.37-.4-.1-.8-.2-1.2-.311-.524-.142-1.046-.295-1.567-.453l-.052-.015c-.375-.113-.75-.226-1.124-.348-.527-.172-1.05-.357-1.575-.545l-.242-.085c-.294-.1-.588-.208-.884-.322-.536-.2-1.065-.424-1.615-.653l-.335-.137c-.232-.1-.465-.19-.7-.292-.564-.247-1.111-.508-1.769-.824-.122-.059-.244-.115-.367-.172-.153-.071-.307-.142-.457-.218-.872-.436-1.722-.887-2.527-1.341-.054-.03-.107-.063-.16-.1-.077-.047-.154-.094-.233-.139-.786-.452-1.463-.858-2.069-1.241-.176-.112-.35-.229-.523-.346l-.349-.234c-.512-.336-1.024-.672-1.527-1.028-.216-.152-.428-.31-.641-.468l-.319-.236c-.455-.337-.911-.672-1.36-1.024-.268-.21-.531-.426-.794-.643l-.187-.154c-.123-.1-.248-.2-.372-.3-.159-.127-.318-.254-.474-.386l-.7-.595Zm50.859,1.081c.736-.2,1.488-.426,2.234-.671.072-.023.145-.049.216-.076l.084-.03c.731-.244,1.336-.46,1.931-.689l.043-.017a45.923,45.923,0,0,0,28.616-50.087l-.012-.075c-.1-.613-.226-1.257-.391-2.031l-.013-.071c-.013-.067-.025-.134-.039-.2-.168-.766-.356-1.53-.558-2.268a46.035,46.035,0,0,0-3.518-8.981l-1.859-3.6-1.587,3.725c-5.034,11.821-13.042,23.321-23.8,34.179a114.131,114.131,0,0,1-34.242,23.954l-3.644,1.618,3.548,1.819a46.032,46.032,0,0,0,21.015,5.1A45.522,45.522,0,0,0,632.366,1669.814Z" transform="translate(-513.238 -1518.689)" fill="none"/>
    </clipPath>
  </defs>
  <path id="Pfad_293" data-name="Pfad 293" d="M119.928,422.758,142.9,447.229l32.143-7.83A57.068,57.068,0,0,0,119.928,422.758Z" transform="matrix(1, 0, 0, 1, -56.436, -361.660004)" fill="#00ffa3"/>
  <path id="Pfad_294" data-name="Pfad 294" d="M127.833,471.707a57.062,57.062,0,0,0,41.291-40.125l-32.143,7.83Z" transform="matrix(1, 0, 0, 1, -50.513, -353.84201)" fill="#008869" opacity="0.5"/>
  <path id="Pfad_295" data-name="Pfad 295" d="M134.713,478.836l9.147-32.3-22.975-24.471-.01,0A59.419,59.419,0,0,0,134.713,478.836Z" transform="matrix(1, 0, 0, 1, -57.393001, -360.971008)" fill="#008869"/>
  <g id="Gruppe_299" data-name="Gruppe 299" transform="matrix(1, 0, 0, 1, 0.001, 0)">
    <g id="Gruppe_297" data-name="Gruppe 297">
      <path id="Pfad_296" data-name="Pfad 296" d="M151.9,537.187c-.142.026-.283.049-.425.07s-.287.045-.432.072c-.558.1-1.114.2-1.676.28-.476.072-.952.133-1.426.192-.549.068-1.1.129-1.657.18q-.722.068-1.447.119c-.126.009-.25.019-.374.031s-.224.021-.336.028c-.318.017-.639.026-.957.037l-.665.023c-.126.005-.252.01-.385.012-.9.019-1.837.016-2.79-.01-.142,0-.283-.01-.423-.018l-.3-.012c-.752-.031-1.51-.077-2.251-.136l-.248-.019c-.168-.014-.336-.026-.506-.042-1-.093-1.917-.2-2.813-.329-.075-.01-.15-.023-.227-.037l-.243-.038c-.785-.119-1.6-.261-2.418-.422-.25-.049-.5-.1-.754-.15-1.085-.228-1.98-.436-2.815-.656a56.871,56.871,0,0,1-28.255-17.339c-.614-.694-1.223-1.419-1.809-2.15-1.172-1.464-2.286-3.007-3.315-4.587-.516-.794-1.022-1.611-1.5-2.433a56.869,56.869,0,0,1-5.918-43.409c.269-1.029.581-2.078.952-3.206l.084-.269c.318-.952.673-1.926,1.09-2.975l.154-.4c.373-.917.787-1.865,1.233-2.815l.206-.441c.434-.9.9-1.812,1.385-2.7.077-.143.156-.283.236-.429.506-.906,1.027-1.786,1.55-2.617l.236-.369c.581-.906,1.165-1.77,1.737-2.566l.191-.259c.682-.936,1.322-1.77,1.973-2.566l.054-.065c.679-.827,1.4-1.655,2.139-2.463l.112-.124c.675-.729,1.4-1.473,2.223-2.269l.255-.25c.712-.681,1.457-1.356,2.279-2.064l.339-.292c.759-.642,1.553-1.279,2.363-1.893l.385-.289c.82-.616,1.653-1.2,2.472-1.751l.387-.254c.908-.595,1.762-1.125,2.612-1.618l.336-.192c.827-.474,1.6-.9,2.351-1.281q-.438,1.674-.771,3.3c-.64,3.124-1.294,7.191-1.95,12.1A46.066,46.066,0,0,0,96.627,469.36c-.2.752-.378,1.516-.535,2.267q-.024.113-.042.226l-.017.093c-.156.768-.271,1.4-.364,1.989l-.007.047a45.929,45.929,0,0,0,29.04,49.837l.1.04c.682.255,1.361.481,1.882.651l.107.039c.073.024.145.051.224.075.736.234,1.489.453,2.237.649l.24.063h0a45.538,45.538,0,0,0,8.1,1.293,14.3,14.3,0,0,0,1.616.1h.066a69.908,69.908,0,0,0,17.983-2.82l.051-.016c13.562-4.382,27.291-13.113,38.658-24.583,12.3-12.415,20.486-25.482,24.333-38.836l.327-1.142-.878-.8c-10.589-9.6-25.048-17.154-40.718-21.275-15.614-4.109-31.874-4.657-45.788-1.541l-1.191.266-.255,1.195c-2.984,13.931-2.285,30.184,1.966,45.767a100.865,100.865,0,0,0,17.446,35.563c-1.6.341-3.378.644-5.386.915a69.408,69.408,0,0,1-7.625.658,117.444,117.444,0,0,1-19.262-74.239c.056-.541.108-1.071.145-1.566a81.993,81.993,0,0,1,3.929-18.46c.024-.061.049-.124.07-.186.383-1.1.763-2.1,1.165-3.072l.031-.072c.4-.969.854-1.966,1.34-2.967l.1-.217c.436-.889.917-1.8,1.471-2.79l.2-.359c.481-.843,1.013-1.72,1.583-2.606l.266-.411c.537-.82,1.113-1.651,1.711-2.468l.3-.408c.616-.824,1.24-1.618,1.861-2.365l.3-.36c.694-.822,1.356-1.567,2.026-2.279l.264-.274c.782-.822,1.511-1.55,2.234-2.23l.143-.131c.789-.738,1.6-1.457,2.416-2.138l.093-.08c.784-.651,1.608-1.3,2.519-1.973l.275-.2c.794-.582,1.625-1.156,2.545-1.756l.371-.245c.82-.527,1.7-1.055,2.6-1.569l.429-.241c.887-.495,1.791-.971,2.689-1.41l.434-.21c.945-.453,1.889-.878,2.806-1.258l.39-.157c1.055-.429,2.027-.794,2.965-1.116l.271-.089c1.139-.383,2.185-.705,3.2-.981.92-.252,1.873-.486,2.834-.7.068-.016.136-.026.2-.04.093-.017.185-.035.276-.054.957-.2,1.693-.343,2.407-.462l.142-.023a57.247,57.247,0,0,1,62.588,35.84l.014.031c.269.7.548,1.476.848,2.379.026.079.054.157.084.234.018.049.035.1.051.145.308.943.591,1.884.84,2.8.236.864.464,1.8.7,2.864l.1.45c.185.889.357,1.819.509,2.774.024.159.049.32.079.512.149,1,.266,1.919.355,2.816l.03.352c.093.974.159,1.931.2,2.85l.009.165c.037.9.049,1.844.038,2.9l-.005.46c-.01.605-.031,1.218-.063,1.828q-.918-.9-1.842-1.735c-2.509-2.269-5.92-5.089-10.144-8.388a44.071,44.071,0,0,0-1.02-4.833,45.744,45.744,0,0,0-82.861-12.34l-2.131,3.369,3.96-.458a116.973,116.973,0,0,1,79.583,20.955,81.729,81.729,0,0,1,14.007,12.6,57.568,57.568,0,0,1,12.061,22.545h0a57.2,57.2,0,0,1-51.944,72.206c-.92.051-1.861.079-2.874.084-.177.005-.353,0-.53-.007-.14,0-.28-.007-.418-.007-.715-.009-1.312-.018-1.917-.044-.25-.012-.5-.03-.747-.047l-.381-.026c-.577-.037-1.155-.073-1.732-.129-.3-.028-.605-.063-.908-.1l-.285-.033c-.551-.063-1.1-.13-1.648-.208-.387-.056-.771-.121-1.156-.185l-.061-.011c-.537-.089-1.072-.184-1.606-.289-.408-.079-.812-.164-1.218-.254-.528-.116-1.055-.238-1.583-.371q-.6-.147-1.2-.31c-.523-.143-1.044-.3-1.566-.453l-.052-.016c-.376-.114-.75-.226-1.123-.348-.528-.172-1.051-.357-1.576-.544l-.241-.086c-.294-.1-.588-.208-.883-.322-.537-.2-1.065-.423-1.615-.652l-.336-.138c-.231-.094-.465-.189-.7-.292-.563-.247-1.111-.507-1.768-.824-.121-.06-.243-.116-.366-.172-.154-.072-.308-.142-.458-.219-.871-.436-1.721-.887-2.528-1.34-.054-.032-.107-.065-.159-.1-.077-.047-.154-.095-.234-.14-.785-.451-1.462-.857-2.068-1.24-.177-.112-.352-.227-.525-.344l-.348-.234c-.513-.336-1.023-.672-1.527-1.027-.217-.152-.429-.311-.642-.469l-.318-.236c-.455-.336-.911-.672-1.359-1.025-.268-.21-.532-.425-.794-.642l-.187-.154c-.124-.1-.248-.2-.373-.3-.159-.126-.318-.254-.474-.385l-.7-.595Zm50.859,1.081c.735-.2,1.487-.427,2.234-.672.072-.023.143-.049.215-.075l.086-.031c.729-.243,1.335-.46,1.929-.687l.042-.017A45.925,45.925,0,0,0,235.885,486.7l-.01-.075c-.1-.612-.227-1.256-.392-2.029l-.012-.072c-.014-.068-.026-.135-.04-.2-.168-.766-.355-1.529-.558-2.267a45.972,45.972,0,0,0-3.518-8.981l-1.858-3.6L227.91,473.2c-5.035,11.822-13.043,23.322-23.8,34.178a114.08,114.08,0,0,1-34.243,23.955l-3.644,1.618,3.548,1.819a46.033,46.033,0,0,0,21.014,5.1A45.542,45.542,0,0,0,202.762,538.268Z" transform="translate(-83.633 -387.142)" fill="#f4f5f9"/>
      <g id="Gruppe_296" data-name="Gruppe 296">
        <path id="Pfad_297" data-name="Pfad 297" d="M151.9,537.187c-.142.026-.283.049-.425.07s-.287.045-.432.072c-.558.1-1.114.2-1.676.28-.476.072-.952.133-1.426.192-.549.068-1.1.129-1.657.18q-.722.068-1.447.119c-.126.009-.25.019-.374.031s-.224.021-.336.028c-.318.017-.639.026-.957.037l-.665.023c-.126.005-.252.01-.385.012-.9.019-1.837.016-2.79-.01-.142,0-.283-.01-.423-.018l-.3-.012c-.752-.031-1.51-.077-2.251-.136l-.248-.019c-.168-.014-.336-.026-.506-.042-1-.093-1.917-.2-2.813-.329-.075-.01-.15-.023-.227-.037l-.243-.038c-.785-.119-1.6-.261-2.418-.422-.25-.049-.5-.1-.754-.15-1.085-.228-1.98-.436-2.815-.656a56.871,56.871,0,0,1-28.255-17.339c-.614-.694-1.223-1.419-1.809-2.15-1.172-1.464-2.286-3.007-3.315-4.587-.516-.794-1.022-1.611-1.5-2.433a56.869,56.869,0,0,1-5.918-43.409c.269-1.029.581-2.078.952-3.206l.084-.269c.318-.952.673-1.926,1.09-2.975l.154-.4c.373-.917.787-1.865,1.233-2.815l.206-.441c.434-.9.9-1.812,1.385-2.7.077-.143.156-.283.236-.429.506-.906,1.027-1.786,1.55-2.617l.236-.369c.581-.906,1.165-1.77,1.737-2.566l.191-.259c.682-.936,1.322-1.77,1.973-2.566l.054-.065c.679-.827,1.4-1.655,2.139-2.463l.112-.124c.675-.729,1.4-1.473,2.223-2.269l.255-.25c.712-.681,1.457-1.356,2.279-2.064l.339-.292c.759-.642,1.553-1.279,2.363-1.893l.385-.289c.82-.616,1.653-1.2,2.472-1.751l.387-.254c.908-.595,1.762-1.125,2.612-1.618l.336-.192c.827-.474,1.6-.9,2.351-1.281q-.438,1.674-.771,3.3c-.64,3.124-1.294,7.191-1.95,12.1A46.066,46.066,0,0,0,96.627,469.36c-.2.752-.378,1.516-.535,2.267q-.024.113-.042.226l-.017.093c-.156.768-.271,1.4-.364,1.989l-.007.047a45.929,45.929,0,0,0,29.04,49.837l.1.04c.682.255,1.361.481,1.882.651l.107.039c.073.024.145.051.224.075.736.234,1.489.453,2.237.649l.24.063h0a45.538,45.538,0,0,0,8.1,1.293,14.3,14.3,0,0,0,1.616.1h.066a69.908,69.908,0,0,0,17.983-2.82l.051-.016c13.562-4.382,27.291-13.113,38.658-24.583,12.3-12.415,20.486-25.482,24.333-38.836l.327-1.142-.878-.8c-10.589-9.6-25.048-17.154-40.718-21.275-15.614-4.109-31.874-4.657-45.788-1.541l-1.191.266-.255,1.195c-2.984,13.931-2.285,30.184,1.966,45.767a100.865,100.865,0,0,0,17.446,35.563c-1.6.341-3.378.644-5.386.915a69.408,69.408,0,0,1-7.625.658,117.444,117.444,0,0,1-19.262-74.239c.056-.541.108-1.071.145-1.566a81.993,81.993,0,0,1,3.929-18.46c.024-.061.049-.124.07-.186.383-1.1.763-2.1,1.165-3.072l.031-.072c.4-.969.854-1.966,1.34-2.967l.1-.217c.436-.889.917-1.8,1.471-2.79l.2-.359c.481-.843,1.013-1.72,1.583-2.606l.266-.411c.537-.82,1.113-1.651,1.711-2.468l.3-.408c.616-.824,1.24-1.618,1.861-2.365l.3-.36c.694-.822,1.356-1.567,2.026-2.279l.264-.274c.782-.822,1.511-1.55,2.234-2.23l.143-.131c.789-.738,1.6-1.457,2.416-2.138l.093-.08c.784-.651,1.608-1.3,2.519-1.973l.275-.2c.794-.582,1.625-1.156,2.545-1.756l.371-.245c.82-.527,1.7-1.055,2.6-1.569l.429-.241c.887-.495,1.791-.971,2.689-1.41l.434-.21c.945-.453,1.889-.878,2.806-1.258l.39-.157c1.055-.429,2.027-.794,2.965-1.116l.271-.089c1.139-.383,2.185-.705,3.2-.981.92-.252,1.873-.486,2.834-.7.068-.016.136-.026.2-.04.093-.017.185-.035.276-.054.957-.2,1.693-.343,2.407-.462l.142-.023a57.247,57.247,0,0,1,62.588,35.84l.014.031c.269.7.548,1.476.848,2.379.026.079.054.157.084.234.018.049.035.1.051.145.308.943.591,1.884.84,2.8.236.864.464,1.8.7,2.864l.1.45c.185.889.357,1.819.509,2.774.024.159.049.32.079.512.149,1,.266,1.919.355,2.816l.03.352c.093.974.159,1.931.2,2.85l.009.165c.037.9.049,1.844.038,2.9l-.005.46c-.01.605-.031,1.218-.063,1.828q-.918-.9-1.842-1.735c-2.509-2.269-5.92-5.089-10.144-8.388a44.071,44.071,0,0,0-1.02-4.833,45.744,45.744,0,0,0-82.861-12.34l-2.131,3.369,3.96-.458a116.973,116.973,0,0,1,79.583,20.955,81.729,81.729,0,0,1,14.007,12.6,57.568,57.568,0,0,1,12.061,22.545h0a57.2,57.2,0,0,1-51.944,72.206c-.92.051-1.861.079-2.874.084-.177.005-.353,0-.53-.007-.14,0-.28-.007-.418-.007-.715-.009-1.312-.018-1.917-.044-.25-.012-.5-.03-.747-.047l-.381-.026c-.577-.037-1.155-.073-1.732-.129-.3-.028-.605-.063-.908-.1l-.285-.033c-.551-.063-1.1-.13-1.648-.208-.387-.056-.771-.121-1.156-.185l-.061-.011c-.537-.089-1.072-.184-1.606-.289-.408-.079-.812-.164-1.218-.254-.528-.116-1.055-.238-1.583-.371q-.6-.147-1.2-.31c-.523-.143-1.044-.3-1.566-.453l-.052-.016c-.376-.114-.75-.226-1.123-.348-.528-.172-1.051-.357-1.576-.544l-.241-.086c-.294-.1-.588-.208-.883-.322-.537-.2-1.065-.423-1.615-.652l-.336-.138c-.231-.094-.465-.189-.7-.292-.563-.247-1.111-.507-1.768-.824-.121-.06-.243-.116-.366-.172-.154-.072-.308-.142-.458-.219-.871-.436-1.721-.887-2.528-1.34-.054-.032-.107-.065-.159-.1-.077-.047-.154-.095-.234-.14-.785-.451-1.462-.857-2.068-1.24-.177-.112-.352-.227-.525-.344l-.348-.234c-.513-.336-1.023-.672-1.527-1.027-.217-.152-.429-.311-.642-.469l-.318-.236c-.455-.336-.911-.672-1.359-1.025-.268-.21-.532-.425-.794-.642l-.187-.154c-.124-.1-.248-.2-.373-.3-.159-.126-.318-.254-.474-.385l-.7-.595Zm50.859,1.081c.735-.2,1.487-.427,2.234-.672.072-.023.143-.049.215-.075l.086-.031c.729-.243,1.335-.46,1.929-.687l.042-.017A45.925,45.925,0,0,0,235.885,486.7l-.01-.075c-.1-.612-.227-1.256-.392-2.029l-.012-.072c-.014-.068-.026-.135-.04-.2-.168-.766-.355-1.529-.558-2.267a45.972,45.972,0,0,0-3.518-8.981l-1.858-3.6L227.91,473.2c-5.035,11.822-13.043,23.322-23.8,34.178a114.08,114.08,0,0,1-34.243,23.955l-3.644,1.618,3.548,1.819a46.033,46.033,0,0,0,21.014,5.1A45.542,45.542,0,0,0,202.762,538.268Z" transform="translate(-83.633 -387.142)" fill="#f4f5f9"/>
        <g id="Gruppe_295" data-name="Gruppe 295" clip-path="url(#clip-path)">
          <g id="Gruppe_294" data-name="Gruppe 294" transform="translate(47.751 34.565)" style="mix-blend-mode: multiply;isolation: isolate">
            <g id="Gruppe_292" data-name="Gruppe 292" transform="translate(21.046 110.372)">
              <path id="Pfad_298" data-name="Pfad 298" d="M131.024,470.757c.588-.245,1.174-.5,1.76-.761C132.158,470.253,131.561,470.51,131.024,470.757Z" transform="translate(-116.919 -469.996)" fill="#f4f5f9"/>
              <path id="Pfad_299" data-name="Pfad 299" d="M141.423,472.4a33.834,33.834,0,0,1-4.357-1.97,64.125,64.125,0,0,1-14.1,4.247c.213.191.436.367.651.553.252.217.5.436.761.646.346.285.7.558,1.051.831.248.191.493.387.745.572.136.1.278.2.416.294a48.3,48.3,0,0,0,5.645-1.394A60.872,60.872,0,0,0,141.423,472.4Z" transform="translate(-122.961 -469.67)" fill="#f4f5f9"/>
            </g>
            <g id="Gruppe_293" data-name="Gruppe 293" transform="translate(87.754 37.601)">
              <path id="Pfad_300" data-name="Pfad 300" d="M167.8,435.7a9.236,9.236,0,0,0-.649-1.224C167.383,434.88,167.6,435.291,167.8,435.7Z" transform="translate(-156.553 -423.839)" fill="#f4f5f9"/>
              <path id="Pfad_301" data-name="Pfad 301" d="M161.1,431.769a39.3,39.3,0,0,1,5.152,5.019,26.73,26.73,0,0,1,3.766,5.556q.895-1.648,1.685-3.308A51.991,51.991,0,0,0,162.33,428.4C161.966,429.523,161.55,430.647,161.1,431.769Z" transform="translate(-161.095 -428.396)" fill="#f4f5f9"/>
            </g>
            <path id="Pfad_302" data-name="Pfad 302" d="M115.989,408.253a66.716,66.716,0,0,0-5.059,16.631c1.44-.43,2.909-.815,4.4-1.167a48.526,48.526,0,0,1,2.108-9.11,35.772,35.772,0,0,1,3.229-7.211q-2.327.328-4.609.754c.226-.422.467-.834.708-1.249A12.744,12.744,0,0,0,115.989,408.253Z" transform="translate(-110.93 -406.901)" fill="#f4f5f9"/>
          </g>
        </g>
      </g>
    </g>
  </g>
  <g id="Gruppe_594" data-name="Gruppe 594" transform="matrix(1, 0, 0, 1, -513.236976, -1518.469971)">
    <path id="Pfad_406" data-name="Pfad 406" d="M581.507,1668.734c-.14.027-.282.049-.424.071s-.288.045-.433.071c-.557.1-1.114.2-1.676.279-.475.072-.95.134-1.425.193-.55.068-1.1.128-1.656.18-.482.046-.964.086-1.448.119-.125.008-.25.02-.374.032s-.223.021-.336.027c-.318.018-.637.027-.956.036l-.664.023c-.127.005-.253.011-.386.013-.9.019-1.836.016-2.789-.01-.141,0-.283-.011-.424-.017l-.3-.013c-.752-.031-1.509-.076-2.251-.136l-.248-.02c-.168-.013-.336-.026-.505-.042-1-.093-1.918-.2-2.813-.329-.076-.01-.151-.024-.227-.036l-.243-.039c-.787-.12-1.6-.262-2.418-.422-.251-.049-.5-.1-.754-.151-1.086-.227-1.98-.436-2.815-.656a56.861,56.861,0,0,1-28.254-17.339c-.614-.695-1.223-1.418-1.808-2.149-1.172-1.465-2.288-3.008-3.315-4.588-.516-.793-1.021-1.611-1.5-2.432a56.871,56.871,0,0,1-5.919-43.409c.271-1.028.582-2.078.952-3.206l.085-.271c.317-.952.673-1.926,1.088-2.975l.155-.4c.372-.918.786-1.865,1.232-2.816l.207-.441c.434-.9.9-1.813,1.385-2.7.078-.143.156-.285.238-.429.5-.905,1.026-1.785,1.549-2.616l.237-.37c.58-.906,1.164-1.769,1.736-2.566l.192-.26c.681-.935,1.322-1.769,1.973-2.566l.054-.065c.677-.826,1.4-1.654,2.139-2.461l.111-.124c.675-.731,1.4-1.473,2.224-2.27l.254-.249c.712-.682,1.458-1.357,2.28-2.064l.339-.292c.759-.642,1.553-1.279,2.363-1.894l.384-.289c.822-.615,1.654-1.2,2.472-1.75l.387-.254c.907-.595,1.762-1.125,2.611-1.619l.336-.191c.828-.474,1.6-.9,2.35-1.281q-.438,1.674-.771,3.3c-.64,3.124-1.3,7.19-1.95,12.1a46.061,46.061,0,0,0-15.527,23.933c-.2.751-.378,1.515-.535,2.267-.016.075-.03.15-.043.225l-.017.092c-.156.768-.272,1.4-.364,1.99l-.006.047a45.926,45.926,0,0,0,29.039,49.837l.1.04c.683.256,1.36.482,1.882.652l.107.037c.072.026.145.051.223.075.736.234,1.49.453,2.239.65l.239.063h0a45.643,45.643,0,0,0,8.1,1.292,14.378,14.378,0,0,0,1.615.1h.067a69.925,69.925,0,0,0,17.983-2.82l.051-.016c13.562-4.382,27.291-13.113,38.657-24.584,12.3-12.414,20.487-25.481,24.332-38.836l.328-1.141-.88-.8c-10.587-9.6-25.048-17.153-40.717-21.275-15.614-4.109-31.875-4.656-45.788-1.541l-1.191.266-.256,1.194c-2.984,13.931-2.286,30.186,1.966,45.768a100.839,100.839,0,0,0,17.445,35.563c-1.595.342-3.379.645-5.386.915a69.476,69.476,0,0,1-7.626.658,117.453,117.453,0,0,1-19.261-74.239c.057-.541.108-1.07.146-1.565a81.948,81.948,0,0,1,3.928-18.461c.025-.062.049-.124.07-.185.384-1.1.763-2.1,1.165-3.071l.031-.072c.4-.969.854-1.966,1.34-2.967l.1-.216c.436-.889.917-1.8,1.472-2.791l.2-.358c.481-.843,1.014-1.719,1.584-2.606l.265-.411c.537-.82,1.113-1.651,1.712-2.468l.3-.408c.615-.824,1.24-1.618,1.861-2.365l.3-.36c.694-.822,1.357-1.567,2.026-2.279l.265-.276c.781-.821,1.51-1.549,2.233-2.229l.144-.132c.789-.739,1.6-1.457,2.416-2.138l.093-.08c.783-.651,1.607-1.3,2.519-1.973l.274-.206c.795-.583,1.625-1.156,2.546-1.757l.371-.244c.82-.527,1.695-1.055,2.6-1.57l.428-.242c.888-.5,1.792-.97,2.69-1.41l.434-.21c.944-.454,1.889-.878,2.8-1.258l.391-.157c1.055-.429,2.027-.795,2.964-1.116l.272-.089c1.138-.384,2.186-.7,3.2-.982.921-.252,1.873-.486,2.834-.7.068-.016.137-.027.205-.04.093-.017.185-.035.275-.054.957-.2,1.694-.345,2.408-.463l.142-.022A57.245,57.245,0,0,1,660.14,1555.3l.014.032c.268.7.546,1.477.848,2.379.026.08.055.157.083.236.018.048.036.1.052.145.308.942.591,1.883.841,2.8.235.863.463,1.8.7,2.864l.1.449c.186.889.357,1.82.509,2.774.026.16.05.32.079.513.149,1,.265,1.919.355,2.816l.031.352c.091.974.158,1.931.2,2.85l.009.164c.036.895.049,1.843.038,2.9l0,.46c-.011.605-.032,1.217-.063,1.828q-.919-.9-1.842-1.737c-2.509-2.268-5.919-5.088-10.143-8.387a44.247,44.247,0,0,0-1.02-4.833,45.744,45.744,0,0,0-82.861-12.341l-2.131,3.369,3.96-.458a116.984,116.984,0,0,1,79.584,20.956,81.8,81.8,0,0,1,14.006,12.6,57.586,57.586,0,0,1,12.061,22.546h0a57.2,57.2,0,0,1-51.944,72.206c-.921.051-1.861.079-2.874.085-.177,0-.353,0-.53-.008-.14,0-.281-.007-.419-.008-.716-.008-1.312-.016-1.918-.044-.25-.011-.5-.029-.746-.046l-.382-.026c-.577-.037-1.153-.074-1.732-.13-.3-.028-.6-.064-.907-.1l-.286-.034c-.55-.063-1.1-.13-1.647-.209-.387-.056-.771-.12-1.156-.185l-.062-.01c-.537-.089-1.072-.185-1.606-.289-.407-.08-.812-.165-1.217-.254-.528-.116-1.055-.239-1.583-.37-.4-.1-.8-.2-1.2-.311-.524-.142-1.046-.295-1.567-.453l-.052-.015c-.375-.113-.75-.226-1.124-.348-.527-.172-1.05-.357-1.575-.545l-.242-.085c-.294-.1-.588-.208-.884-.322-.536-.2-1.065-.424-1.615-.653l-.335-.137c-.232-.1-.465-.19-.7-.292-.564-.247-1.111-.508-1.769-.824-.122-.059-.244-.115-.367-.172-.153-.071-.307-.142-.457-.218-.872-.436-1.722-.887-2.527-1.341-.054-.03-.107-.063-.16-.1-.077-.047-.154-.094-.233-.139-.786-.452-1.463-.858-2.069-1.241-.176-.112-.35-.229-.523-.346l-.349-.234c-.512-.336-1.024-.672-1.527-1.028-.216-.152-.428-.31-.641-.468l-.319-.236c-.455-.337-.911-.672-1.36-1.024-.268-.21-.531-.426-.794-.643l-.187-.154c-.123-.1-.248-.2-.372-.3-.159-.127-.318-.254-.474-.386l-.7-.595Zm50.859,1.081c.736-.2,1.488-.426,2.234-.671.072-.023.145-.049.216-.076l.084-.03c.731-.244,1.336-.46,1.931-.689l.043-.017a45.923,45.923,0,0,0,28.616-50.087l-.012-.075c-.1-.613-.226-1.257-.391-2.031l-.013-.071c-.013-.067-.025-.134-.039-.2-.168-.766-.356-1.53-.558-2.268a46.035,46.035,0,0,0-3.518-8.981l-1.859-3.6-1.587,3.725c-5.034,11.821-13.042,23.321-23.8,34.179a114.131,114.131,0,0,1-34.242,23.954l-3.644,1.618,3.548,1.819a46.032,46.032,0,0,0,21.015,5.1A45.522,45.522,0,0,0,632.366,1669.814Z" transform="translate(0 0)" fill="#fff"/>
    <g id="Gruppe_598" data-name="Gruppe 598" transform="translate(513.238 1518.689)">
      <g id="Gruppe_597" data-name="Gruppe 597" clip-path="url(#clip-path-2)">
        <g id="Gruppe_596" data-name="Gruppe 596" transform="translate(47.752 34.564)" opacity="0.5" style="mix-blend-mode: multiply;isolation: isolate">
          <g id="Gruppe_594-2" data-name="Gruppe 594" transform="translate(21.045 110.372)">
            <path id="Pfad_407" data-name="Pfad 407" d="M743.149,1921.4q.881-.368,1.759-.761C744.282,1920.9,743.686,1921.156,743.149,1921.4Z" transform="translate(-729.043 -1920.642)" fill="#1d1d1b"/>
            <path id="Pfad_408" data-name="Pfad 408" d="M722.493,1924.722a33.732,33.732,0,0,1-4.358-1.97A64.064,64.064,0,0,1,704.03,1927c.213.19.436.368.652.554.252.217.5.435.76.646.346.284.7.557,1.053.83.248.191.493.387.745.573.137.1.277.195.415.293a48.244,48.244,0,0,0,5.645-1.394A60.8,60.8,0,0,0,722.493,1924.722Z" transform="translate(-704.03 -1921.991)" fill="#1d1d1b"/>
          </g>
          <g id="Gruppe_595" data-name="Gruppe 595" transform="translate(87.753 37.602)">
            <path id="Pfad_409" data-name="Pfad 409" d="M919.086,1749.557a9.275,9.275,0,0,0-.65-1.225C918.664,1748.736,918.875,1749.146,919.086,1749.557Z" transform="translate(-907.833 -1737.694)" fill="#1d1d1b"/>
            <path id="Pfad_410" data-name="Pfad 410" d="M889.032,1722.2a39.3,39.3,0,0,1,5.152,5.018,26.758,26.758,0,0,1,3.766,5.555q.895-1.647,1.685-3.307a51.916,51.916,0,0,0-9.367-10.639C889.9,1719.954,889.487,1721.079,889.032,1722.2Z" transform="translate(-889.032 -1718.828)" fill="#1d1d1b"/>
          </g>
          <path id="Pfad_411" data-name="Pfad 411" d="M650.725,1615.9a66.736,66.736,0,0,0-5.058,16.63c1.438-.431,2.91-.816,4.4-1.167a48.438,48.438,0,0,1,2.107-9.111,35.886,35.886,0,0,1,3.228-7.209q-2.327.328-4.609.754c.227-.423.468-.836.709-1.25A13.044,13.044,0,0,0,650.725,1615.9Z" transform="translate(-645.667 -1614.546)" fill="#1d1d1b"/>
        </g>
      </g>
    </g>
  </g>
</svg>